<?xml version="1.0" standalone="yes"?>
<svg xmlns="http://www.w3.org/2000/svg" width="420" height="405">
<path style="fill:#0186be; stroke:none;" d="M200 6C197.924 10.8173 195.175 15.3748 192.692 20C191.423 22.3633 189.299 25.1248 189.542 27.9606C189.948 32.6902 197.704 37.8084 201 40.7145C212.604 50.9451 223.345 63.0943 236 72C232.729 60.8792 224.88 50.151 219.306 40C213.255 28.9829 208.069 15.638 200 6z"/>
<path style="fill:#78bfdc; stroke:none;" d="M199 7L200 8L199 7z"/>
<path style="fill:#71b9d7; stroke:none;" d="M201 7L202 8L201 7z"/>
<path style="fill:#5aafd2; stroke:none;" d="M198 9L199 10L198 9M202 9L203 10L202 9z"/>
<path style="fill:#46a6ce; stroke:none;" d="M197 11L198 12L197 11M203 11L204 12L203 11z"/>
<path style="fill:#b1d8e8; stroke:none;" d="M204 12L205 13L204 12z"/>
<path style="fill:#a6d4e8; stroke:none;" d="M195 14L196 15L195 14z"/>
<path style="fill:#9dd0e5; stroke:none;" d="M205 14L206 15L205 14z"/>
<path style="fill:#8bc7e0; stroke:none;" d="M194 16L195 17L194 16M206 16L207 17L206 16z"/>
<path style="fill:#78bfdc; stroke:none;" d="M193 18L194 19L193 18z"/>
<path style="fill:#6cb8d7; stroke:none;" d="M207 18L208 19L207 18z"/>
<path style="fill:#59b1d5; stroke:none;" d="M192 20L193 21L192 20z"/>
<path style="fill:#5aafd2; stroke:none;" d="M208 20L209 21L208 20z"/>
<path style="fill:#46a6ce; stroke:none;" d="M191 22L192 23L191 22M209 22L210 23L209 22z"/>
<path style="fill:#aed7e9; stroke:none;" d="M210 23L211 24L210 23z"/>
<path style="fill:#a2d4e8; stroke:none;" d="M189 25L190 26L189 25z"/>
<path style="fill:#99cfe5; stroke:none;" d="M211 25L212 26L211 25z"/>
<path style="fill:#86c6e1; stroke:none;" d="M188 27L189 28L188 27M212 27L213 28L212 27z"/>
<path style="fill:#018ac2; stroke:none;" d="M188 28C185.967 32.718 179.585 39.7572 180.102 44.9992C180.611 50.1634 189.481 55.614 193 58.9614C202.434 67.9371 212.234 76.6728 222 85.2855C226.854 89.5661 230.848 94.6168 237 97C239.118 93.7937 243.266 90.0641 243.306 86C243.385 78.0734 234.335 69.9726 229 65.2847C215.124 53.0926 201.952 40.1125 188 28z"/>
<path style="fill:#73bede; stroke:none;" d="M187 29L188 30L187 29z"/>
<path style="fill:#6cb8d7; stroke:none;" d="M213 29L214 30L213 29z"/>
<path style="fill:#55b1d5; stroke:none;" d="M186 31L187 32L186 31z"/>
<path style="fill:#56add2; stroke:none;" d="M214 31L215 32L214 31z"/>
<path style="fill:#41a7d1; stroke:none;" d="M185 33L186 34L185 33z"/>
<path style="fill:#41a3cd; stroke:none;" d="M215 33L216 34L215 33z"/>
<path style="fill:#b6deef; stroke:none;" d="M184 34L185 35L184 34z"/>
<path style="fill:#aed7e9; stroke:none;" d="M216 34L217 35L216 34z"/>
<path style="fill:#9fd3e9; stroke:none;" d="M183 36L184 37L183 36z"/>
<path style="fill:#99cfe5; stroke:none;" d="M217 36L218 37L217 36z"/>
<path style="fill:#86c6e1; stroke:none;" d="M182 38L183 39L182 38z"/>
<path style="fill:#7dc1dd; stroke:none;" d="M218 38L219 39L218 38z"/>
<path style="fill:#73bede; stroke:none;" d="M181 40L182 41L181 40z"/>
<path style="fill:#65b6d7; stroke:none;" d="M219 40L220 41L219 40z"/>
<path style="fill:#53b1d7; stroke:none;" d="M180 42L181 43L180 42z"/>
<path style="fill:#52add3; stroke:none;" d="M220 42L221 43L220 42z"/>
<path style="fill:#b6deef; stroke:none;" d="M178 45L179 46L178 45z"/>
<path style="fill:#a9d7e9; stroke:none;" d="M222 45L223 46L222 45z"/>
<path style="fill:#018dc6; stroke:none;" d="M178 46C176.474 49.6452 172.017 54.9474 172.828 59C173.835 64.0323 180.454 67.9674 184 71.1698C193.757 79.983 203.372 88.9576 213 97.9105C215.926 100.631 221.749 107.795 225.985 107.793C230.167 107.792 233.723 100.869 236 98C225.19 84.5927 209.921 73.11 197 61.7145C190.934 56.365 185.426 49.4426 178 46z"/>
<path style="fill:#95cfe7; stroke:none;" d="M177 47L178 48L177 47z"/>
<path style="fill:#93cce3; stroke:none;" d="M223 47L224 48L223 47z"/>
<path style="fill:#81c7e5; stroke:none;" d="M176 49L177 50L176 49z"/>
<path style="fill:#78bfdc; stroke:none;" d="M224 49L225 50L224 49z"/>
<path style="fill:#6ebee0; stroke:none;" d="M175 51L176 52L175 51z"/>
<path style="fill:#65b6d7; stroke:none;" d="M225 51L226 52L225 51z"/>
<path style="fill:#51cdf3; stroke:none;" d="M271 51L272 52L271 51z"/>
<path style="fill:#82d9f6; stroke:none;" d="M270 52L271 53L270 52z"/>
<path style="fill:#03b4ed; stroke:none;" d="M271 52C258.89 65.9943 247.952 81.3332 236.651 96C232.363 101.565 225.615 107.59 226 115C219.621 116.937 221 123.429 221 129L221 168L233 168C236.639 143.269 249.902 117.468 262.15 96C267.079 87.3615 272.267 76.3908 280 70C277.556 64.0433 275.596 56.5868 271 52z"/>
<path style="fill:#61d0f3; stroke:none;" d="M272 52L273 53L272 52z"/>
<path style="fill:#51b1d9; stroke:none;" d="M174 53L175 54L174 53z"/>
<path style="fill:#52add3; stroke:none;" d="M226 53L227 54L226 53z"/>
<path style="fill:#a1e3f8; stroke:none;" d="M269 53L270 54L269 53z"/>
<path style="fill:#bee1ef; stroke:none;" d="M227 54L228 55L227 54z"/>
<path style="fill:#93dff7; stroke:none;" d="M273 54L274 55L273 54z"/>
<path style="fill:#b3ddef; stroke:none;" d="M172 56L173 57L172 56z"/>
<path style="fill:#a6d4e8; stroke:none;" d="M228 56L229 57L228 56z"/>
<path style="fill:#71d6f6; stroke:none;" d="M267 56L268 57L267 56z"/>
<path style="fill:#a1e3f8; stroke:none;" d="M274 56L275 57L274 56z"/>
<path style="fill:#93dff7; stroke:none;" d="M266 57L267 58L266 57z"/>
<path style="fill:#93cfe9; stroke:none;" d="M171 58L172 59L171 58z"/>
<path style="fill:#93cce3; stroke:none;" d="M229 58L230 59L229 58z"/>
<path style="fill:#018fcb; stroke:none;" d="M171 59L167 68C172.145 70.3992 175.747 74.8811 180 78.5756C189.152 86.5261 198.12 94.8325 207 103.09C212.482 108.187 219.882 116.269 227 109C206.613 94.6522 191.367 73.3466 171 59z"/>
<path style="fill:#61d0f3; stroke:none;" d="M275 59L276 60L275 59z"/>
<path style="fill:#81c7e5; stroke:none;" d="M170 60L171 61L170 60z"/>
<path style="fill:#78bfdc; stroke:none;" d="M230 60L231 61L230 60z"/>
<path style="fill:#51cdf3; stroke:none;" d="M264 60L265 61L264 60z"/>
<path style="fill:#93dff7; stroke:none;" d="M263 61L264 62L263 61z"/>
<path style="fill:#a1e3f8; stroke:none;" d="M276 61L277 62L276 61z"/>
<path style="fill:#6ebee0; stroke:none;" d="M169 62L170 63L169 62z"/>
<path style="fill:#65b6d7; stroke:none;" d="M231 62L232 63L231 62z"/>
<path style="fill:#4cb2dc; stroke:none;" d="M168 64L169 65L168 64z"/>
<path style="fill:#4cabd3; stroke:none;" d="M232 64L233 65L232 64z"/>
<path style="fill:#51cdf3; stroke:none;" d="M261 64L262 65L261 64z"/>
<path style="fill:#61d0f3; stroke:none;" d="M277 64L278 65L277 64z"/>
<path style="fill:#bee1ef; stroke:none;" d="M233 65L234 66L233 65z"/>
<path style="fill:#82d9f6; stroke:none;" d="M260 65L261 66L260 65z"/>
<path style="fill:#b1e7f9; stroke:none;" d="M259 66L260 67L259 66z"/>
<path style="fill:#82d9f6; stroke:none;" d="M278 66L279 67L278 66z"/>
<path style="fill:#afdef0; stroke:none;" d="M166 67L167 68L166 67z"/>
<path style="fill:#a2d4e8; stroke:none;" d="M234 67L235 68L234 67z"/>
<path style="fill:#0194d0; stroke:none;" d="M197 112C197.001 121.854 200.658 127.836 210 132C211.971 127.904 213.351 121.548 210.992 117.261C209.922 115.317 208.11 113.942 207 112L217 112C206.008 100.111 193.22 89.1913 181 78.5756C177.807 75.802 172.818 68.6358 168.213 68.6358C165.033 68.6358 163.281 73.749 162 76C158.438 82.2581 155.088 88.6505 151.692 95C149.974 98.2115 147.706 101.232 150.362 104.576C160.12 116.861 182.917 112 197 112z"/>
<path style="fill:#a1e3f8; stroke:none;" d="M279 68L280 69L279 68z"/>
<path style="fill:#8fd1e9; stroke:none;" d="M165 69L166 70L165 69z"/>
<path style="fill:#8fcbe3; stroke:none;" d="M235 69L236 70L235 69z"/>
<path style="fill:#71d6f6; stroke:none;" d="M257 69L258 70L257 69z"/>
<path style="fill:#93dff7; stroke:none;" d="M256 70L257 71L256 70z"/>
<path style="fill:#01b1eb; stroke:none;" d="M278 70C263.556 91.4102 250.992 113.747 241.95 138C238.397 147.531 233.89 157.795 233 168C235.832 167.254 238.213 166.45 239.911 163.867C242.819 159.444 241.88 154.999 248 154L247 172L231 172C228.326 191.86 223.48 210.815 222.985 231C222.913 233.944 221.973 237.039 222.238 239.961C222.728 245.366 228.891 248.327 229.786 254C231.054 262.034 228.188 271.105 230.433 278.946C231.22 281.696 233.643 283.561 235 286L225 286C226.671 299.155 229.514 312.183 232.884 325C234.56 331.373 238.058 338.399 238 345C244.621 350.04 250.721 355.821 257 361.282C261.092 364.84 264.648 368.608 270 370C262.003 349.389 253.226 329.739 248.424 308C247.126 302.124 247.26 288.201 241 286C242.477 284.08 244.529 282.208 245.401 279.909C247.614 274.073 246 265.19 246 259C246 256.221 246.489 252.776 245.401 250.148C244.51 247.996 243.019 247.613 241 247C241.004 211.088 248.102 174.367 261.449 141C266.274 128.937 271.852 117.284 278.281 106C280.989 101.246 287.015 94.6111 287.192 89C287.379 83.0623 282.131 75.4921 280 70L278 70z"/>
<path style="fill:#7cc7e7; stroke:none;" d="M164 71L165 72L164 71z"/>
<path style="fill:#73bede; stroke:none;" d="M236 71L237 72L236 71z"/>
<path style="fill:#61d0f3; stroke:none;" d="M280 71L281 72L280 71z"/>
<path style="fill:#5ebbe2; stroke:none;" d="M163 73L164 74L163 73z"/>
<path style="fill:#5eb4d7; stroke:none;" d="M237 73L238 74L237 73z"/>
<path style="fill:#51cdf3; stroke:none;" d="M254 73L255 74L254 73z"/>
<path style="fill:#8fdcf5; stroke:none;" d="M281 73L282 74L281 73z"/>
<path style="fill:#93dff7; stroke:none;" d="M253 74L254 75L253 74z"/>
<path style="fill:#4cb2dc; stroke:none;" d="M162 75L163 76L162 75z"/>
<path style="fill:#4cabd3; stroke:none;" d="M238 75L239 76L238 75z"/>
<path style="fill:#afe7f9; stroke:none;" d="M282 75L283 76L282 75z"/>
<path style="fill:#bcdfed; stroke:none;" d="M239 76L240 77L239 76z"/>
<path style="fill:#61d0f3; stroke:none;" d="M282 76L283 77L282 76z"/>
<path style="fill:#51cdf3; stroke:none;" d="M251 77L252 78L251 77z"/>
<path style="fill:#afdef0; stroke:none;" d="M160 78L161 79L160 78z"/>
<path style="fill:#a2d4e8; stroke:none;" d="M240 78L241 79L240 78z"/>
<path style="fill:#82d9f6; stroke:none;" d="M250 78L251 79L250 78z"/>
<path style="fill:#71d6f6; stroke:none;" d="M283 78L284 79L283 78z"/>
<path style="fill:#b1e7f9; stroke:none;" d="M249 79L250 80L249 79z"/>
<path style="fill:#8fd1e9; stroke:none;" d="M159 80L160 81L159 80z"/>
<path style="fill:#8fcbe3; stroke:none;" d="M241 80L242 81L241 80z"/>
<path style="fill:#9fe1f7; stroke:none;" d="M284 80L285 81L284 80z"/>
<path style="fill:#7cc7e7; stroke:none;" d="M158 82L159 83L158 82z"/>
<path style="fill:#73bede; stroke:none;" d="M242 82L243 83L242 82z"/>
<path style="fill:#71d6f6; stroke:none;" d="M247 82L248 83L247 82z"/>
<path style="fill:#93dff7; stroke:none;" d="M246 83L247 84L246 83z"/>
<path style="fill:#61d0f3; stroke:none;" d="M285 83L286 84L285 83z"/>
<path style="fill:#5ebbe2; stroke:none;" d="M157 84L158 85L157 84z"/>
<path style="fill:#5eb4d7; stroke:none;" d="M243 84L244 85L243 84z"/>
<path style="fill:#8fdcf5; stroke:none;" d="M286 85L287 86L286 85z"/>
<path style="fill:#47b3df; stroke:none;" d="M156 86L157 87L156 86z"/>
<path style="fill:#9fe1f7; stroke:none;" d="M287 87L288 88L287 87z"/>
<path style="fill:#a5dbf1; stroke:none;" d="M154 89L155 90L154 89z"/>
<path style="fill:#01aee8; stroke:none;" d="M287 90C280.913 101.438 273.732 112.187 268.309 124C251.155 161.364 241.114 202.81 241 244L254 244L254 250C260.303 245.849 264.256 243.022 272 243C272 215.065 277.182 187.386 286.344 161C289.166 152.872 292.511 144.745 296.258 137C298.035 133.329 301.245 129.084 301.796 125C302.248 121.647 300.018 118.014 298.799 115C295.628 107.158 292.923 96.1033 287 90z"/>
<path style="fill:#61ccf1; stroke:none;" d="M288 90L289 91L288 90z"/>
<path style="fill:#8acfec; stroke:none;" d="M153 91L154 92L153 91z"/>
<path style="fill:#9fe1f7; stroke:none;" d="M289 92L290 93L289 92z"/>
<path style="fill:#76c7e9; stroke:none;" d="M152 93L153 94L152 93z"/>
<path style="fill:#59bbe5; stroke:none;" d="M151 95L152 96L151 95z"/>
<path style="fill:#61ccf1; stroke:none;" d="M290 95L291 96L290 95z"/>
<path style="fill:#45b3e1; stroke:none;" d="M150 97L151 98L150 97z"/>
<path style="fill:#8fdcf5; stroke:none;" d="M291 97L292 98L291 97z"/>
<path style="fill:#bde4f5; stroke:none;" d="M149 98L150 99L149 98z"/>
<path style="fill:#9fe1f7; stroke:none;" d="M292 99L293 100L292 99z"/>
<path style="fill:#a3daf0; stroke:none;" d="M148 100L149 101L148 100z"/>
<path style="fill:#8acfec; stroke:none;" d="M147 102L148 103L147 102z"/>
<path style="fill:#61ccf1; stroke:none;" d="M293 102L294 103L293 102z"/>
<path style="fill:#019ede; stroke:none;" d="M147 103C141.887 113.951 135.36 124.294 129.745 135C128.084 138.166 123.924 143.031 124.817 146.83C125.637 150.318 130.504 153.597 133 155.911C140.622 162.978 148.468 169.796 156 176.961C158.556 179.393 163.101 184.845 166.961 184.797C171.69 184.738 176.191 175.633 178 172L155 172C156.365 170.171 158.7 168.932 159.75 166.889C161.678 163.137 161 158.061 161 154L161 127C161 123.801 161.257 120.06 159.75 117.111C158.927 115.501 157.079 114.86 156.389 113.222C156.023 112.353 157.932 112.036 158 112C155.059 107.86 151.763 104.845 147 103z"/>
<path style="fill:#76c7e9; stroke:none;" d="M146 104L147 105L146 104z"/>
<path style="fill:#9fe1f7; stroke:none;" d="M294 104L295 105L294 104z"/>
<path style="fill:#57bde6; stroke:none;" d="M145 106L146 107L145 106z"/>
<path style="fill:#61ccf1; stroke:none;" d="M295 107L296 108L295 107z"/>
<path style="fill:#7fd5f3; stroke:none;" d="M296 109L297 110L296 109z"/>
<path style="fill:#a1dbf3; stroke:none;" d="M142 111L143 112L142 111z"/>
<path style="fill:#9fe1f7; stroke:none;" d="M297 111L298 112L297 111z"/>
<path style="fill:#6fc7e9; stroke:none;" d="M155.333 112.667C155.278 112.722 155.222 113.778 155.667 113.333C155.722 113.278 155.778 112.222 155.333 112.667z"/>
<path style="fill:#dbeff8; stroke:none;" d="M207.333 112.667C207.278 112.722 207.222 113.778 207.667 113.333C207.722 113.278 207.778 112.222 207.333 112.667z"/>
<path style="fill:#83cfee; stroke:none;" d="M141 113L142 114L141 113z"/>
<path style="fill:#cfeefa; stroke:none;" d="M156.667 114.333C156.222 114.778 157.278 114.722 157.333 114.667C157.778 114.222 156.722 114.278 156.667 114.333z"/>
<path style="fill:#57b7df; stroke:none;" d="M207 114L208 115L207 114z"/>
<path style="fill:#59cef4; stroke:none;" d="M225 114L226 115L225 114z"/>
<path style="fill:#61ccf1; stroke:none;" d="M298 114L299 115L298 114z"/>
<path style="fill:#71c8ec; stroke:none;" d="M140 115L141 116L140 115z"/>
<path style="fill:#a3d9ed; stroke:none;" d="M210 115C210.545 116.635 210.365 116.455 212 117C211.455 115.365 211.635 115.545 210 115z"/>
<path style="fill:#b1e7f9; stroke:none;" d="M222 115L223 116L222 115z"/>
<path style="fill:#6fc7e9; stroke:none;" d="M169 116L169 139C171.284 133.557 171.284 121.443 169 116z"/>
<path style="fill:#0197d5; stroke:none;" d="M170 116L170 139C176.323 138.999 182.799 139.596 184 132L189 132L189 149L184 149C182.011 142.3 175.931 143.001 170 143L170 168C173.643 168 178.533 168.816 181.826 166.972C185.453 164.942 188.077 160.212 190.576 157C196.767 149.041 202.732 140.899 209 133C205.782 128.627 201.448 125.097 197 122C196.087 123.371 195.303 124.845 193.331 123.829C190.597 122.42 189.723 118.842 186.895 117.318C182.211 114.793 175.148 116 170 116z"/>
<path style="fill:#93d3ed; stroke:none;" d="M185.667 116.333C185.222 116.778 186.278 116.722 186.333 116.667C186.778 116.222 185.722 116.278 185.667 116.333z"/>
<path style="fill:#8fdcf5; stroke:none;" d="M299 116L300 117L299 116z"/>
<path style="fill:#51bde9; stroke:none;" d="M139 117L140 118L139 117z"/>
<path style="fill:#bde4f5; stroke:none;" d="M160 117L161 118L160 117z"/>
<path style="fill:#93d3ed; stroke:none;" d="M188 117L189 118L188 117z"/>
<path style="fill:#6fc7e9; stroke:none;" d="M160.333 118.667C160.278 118.722 160.222 119.778 160.667 119.333C160.722 119.278 160.778 118.222 160.333 118.667z"/>
<path style="fill:#a3d9ed; stroke:none;" d="M189 118L190 119L189 118z"/>
<path style="fill:#dbeff8; stroke:none;" d="M212.333 118.667C212.278 118.722 212.222 119.778 212.667 119.333C212.722 119.278 212.778 118.222 212.333 118.667z"/>
<path style="fill:#afe4f7; stroke:none;" d="M300 118L301 119L300 118z"/>
<path style="fill:#dbf5fd; stroke:none;" d="M220 119L220 168C221.769 163.785 221 158.536 221 154L221 131C221 127.017 221.552 122.699 220 119z"/>
<path style="fill:#61ccf1; stroke:none;" d="M300 119L301 120L300 119z"/>
<path style="fill:#b2e5f7; stroke:none;" d="M137 120L138 121L137 120z"/>
<path style="fill:#71c5e3; stroke:none;" d="M190 120L191 121L190 120z"/>
<path style="fill:#b3eafb; stroke:none;" d="M212 120L212 164C213.552 160.301 213 155.983 213 152L213 132C213 128.017 213.552 123.699 212 120z"/>
<path style="fill:#71d1f1; stroke:none;" d="M301 121L302 122L301 121z"/>
<path style="fill:#97d7f1; stroke:none;" d="M136 122L137 123L136 122z"/>
<path style="fill:#83cbe9; stroke:none;" d="M191 122L192 123L191 122z"/>
<path style="fill:#9fdef4; stroke:none;" d="M302 123L303 124L302 123z"/>
<path style="fill:#83cfee; stroke:none;" d="M135 124L136 125L135 124z"/>
<path style="fill:#bde4f5; stroke:none;" d="M192 124L193 125L192 124z"/>
<path style="fill:#01abe7; stroke:none;" d="M302 125C287.845 149.252 279.477 177.432 274.92 205C273.186 215.486 269.56 230.446 272.317 240.91C273.206 244.284 276.38 246.922 278 250C281.243 242.271 279.299 231.336 280.285 223C282.953 200.461 287.567 178.145 296 157C298.888 149.759 301.383 140.557 307 135C305.76 131.358 304.458 127.978 302 125z"/>
<path style="fill:#71c9e8; stroke:none;" d="M134 126L135 127L134 126z"/>
<path style="fill:#61ccf1; stroke:none;" d="M303 126L304 127L303 126z"/>
<path style="fill:#51bde9; stroke:none;" d="M133 128L134 129L133 128z"/>
<path style="fill:#8fdcf5; stroke:none;" d="M304 128L305 129L304 128z"/>
<path style="fill:#03b7f0; stroke:none;" d="M211 129C202.113 142.449 189.984 153.986 182 168C190.084 166.712 190.586 158.179 198 157C197.361 162.052 197 166.899 197 172C193.373 172 186.622 170.715 183.589 173.028C179.778 175.933 179.811 186.576 179.08 191C176.185 208.521 175 226.268 175 244L180 244L180 249C185.604 246.225 189.52 243.152 196 243C196 217.735 199.16 192.579 205.13 168C207.91 156.551 215.899 140.675 211 129z"/>
<path style="fill:#9fdef4; stroke:none;" d="M305 130L306 131L305 130z"/>
<path style="fill:#b2e5f7; stroke:none;" d="M131 131L132 132L131 131z"/>
<path style="fill:#bde4f5; stroke:none;" d="M184.333 132.667C184.278 132.722 184.222 133.778 184.667 133.333C184.722 133.278 184.778 132.222 184.333 132.667z"/>
<path style="fill:#92d6f0; stroke:none;" d="M130 133L131 134L130 133z"/>
<path style="fill:#61ccf1; stroke:none;" d="M306 133L307 134L306 133z"/>
<path style="fill:#83cfee; stroke:none;" d="M129 135L130 136L129 135z"/>
<path style="fill:#01abe5; stroke:none;" d="M305 135C299.752 147.621 294.08 159.902 290.025 173C282.345 197.813 279 224.109 279 250C282.052 247.922 286.868 245.438 288.972 242.367C290.851 239.624 289.902 235.135 290.039 232C290.301 226.02 291.186 219.93 292 214C294.233 197.742 297.986 181.358 303.808 166C305.979 160.271 311.162 152.108 311.08 146C311.03 142.255 308.565 138.308 307 135L305 135z"/>
<path style="fill:#9fdef4; stroke:none;" d="M307 135L308 136L307 135z"/>
<path style="fill:#6fc7eb; stroke:none;" d="M128 137L129 138L128 137z"/>
<path style="fill:#92d6f0; stroke:none;" d="M182 137L183 138L182 137z"/>
<path style="fill:#57bde6; stroke:none;" d="M180 138L181 139L180 138z"/>
<path style="fill:#b1e1f4; stroke:none;" d="M181 138L182 139L181 138z"/>
<path style="fill:#61ccf1; stroke:none;" d="M308 138L309 139L308 138z"/>
<path style="fill:#4fbde9; stroke:none;" d="M127 139L128 140L127 139z"/>
<path style="fill:#8fd9f6; stroke:none;" d="M309 140L310 141L309 140z"/>
<path style="fill:#b1e1f4; stroke:none;" d="M125 142L126 143L125 142z"/>
<path style="fill:#9fdef4; stroke:none;" d="M310 142L311 143L310 142z"/>
<path style="fill:#6fc7eb; stroke:none;" d="M169 143L169 168C171.413 162.25 171.413 148.75 169 143z"/>
<path style="fill:#57bde6; stroke:none;" d="M180 143L181 144L180 143z"/>
<path style="fill:#b1e1f4; stroke:none;" d="M181 143L182 144L181 143z"/>
<path style="fill:#92d6f0; stroke:none;" d="M124 144L125 145L124 144z"/>
<path style="fill:#57bde6; stroke:none;" d="M182 144L183 145L182 144z"/>
<path style="fill:#a3daf0; stroke:none;" d="M183 145L184 146L183 145z"/>
<path style="fill:#03b4ed; stroke:none;" d="M211 145C205.346 169.664 198.2 193.515 196.961 219C196.643 225.559 193.783 235.373 196.603 241.625C198.007 244.736 201.873 247.271 204 250C210.163 246.2 214.547 243.067 222 243C222.572 229.686 223.471 216.215 225.427 203C226.954 192.686 230.154 182.355 231 172L207 172C208.235 169.84 210.482 168.196 211.401 165.871C213.335 160.978 213.002 149.772 211 145z"/>
<path style="fill:#61ccf1; stroke:none;" d="M311 145L312 146L311 145z"/>
<path style="fill:#7acff1; stroke:none;" d="M123 146L124 147L123 146z"/>
<path style="fill:#01a1e3; stroke:none;" d="M123 147C120.731 151.859 113.294 160.481 114.022 165.91C114.457 169.158 118.808 171.911 121 174C128.515 181.162 136.524 187.81 144 195.011C146.418 197.34 150.105 202.163 153.91 201.883C157.124 201.646 159.602 197.269 161.349 195C162.994 192.863 165.967 189.924 165.833 187.004C165.671 183.478 161.329 180.941 159 178.83C153.275 173.641 147.598 168.365 142 163.039C136.132 157.456 130.024 151.06 123 147z"/>
<path style="fill:#01a8e2; stroke:none;" d="M311 147C298.318 177.911 290 209.4 290 243C295.256 243.048 298.633 243.752 302 248C303.815 243.674 302.729 238.627 303.17 234C304.158 223.611 305.345 213.28 307.261 203C308.835 194.555 311.008 186.166 313.67 178C315.099 173.617 317.903 168.622 318.143 164C318.421 158.636 314.488 150.863 311 147z"/>
<path style="fill:#9fdef4; stroke:none;" d="M312 147L313 148L312 147z"/>
<path style="fill:#61c4ea; stroke:none;" d="M122 148L123 149L122 148z"/>
<path style="fill:#83cfee; stroke:none;" d="M184 148L185 149L184 148z"/>
<path style="fill:#d9d9d9; stroke:none;" d="M100 149C100.839 151.626 101.374 152.161 104 153L104 149L100 149z"/>
<path style="fill:#c3c3c3; stroke:none;" d="M101 150L101 152L103 152L103 150L101 150z"/>
<path style="fill:#4abdeb; stroke:none;" d="M121 150L122 151L121 150z"/>
<path style="fill:#61c8ed; stroke:none;" d="M313 150L314 151L313 150z"/>
<path style="fill:#7fd3f4; stroke:none;" d="M314 152L315 153L314 152z"/>
<path style="fill:#afe1f7; stroke:none;" d="M119 153L120 154L119 153z"/>
<path style="fill:#b1e7f9; stroke:none;" d="M247 154L247 161C248.059 158.466 248.059 156.534 247 154z"/>
<path style="fill:#9fdef4; stroke:none;" d="M315 154L316 155L315 154z"/>
<path style="fill:#8fd7f2; stroke:none;" d="M118 155L119 156L118 155z"/>
<path style="fill:#b1e7f9; stroke:none;" d="M242.333 156.667C242.278 156.722 242.222 157.778 242.667 157.333C242.722 157.278 242.778 156.222 242.333 156.667z"/>
<path style="fill:#7acff1; stroke:none;" d="M117 157L118 158L117 157z"/>
<path style="fill:#6fd7f7; stroke:none;" d="M197 157L197 161C197.71 159.24 197.71 158.759 197 157z"/>
<path style="fill:#61c8ed; stroke:none;" d="M316 157L317 158L316 157z"/>
<path style="fill:#5cc3ee; stroke:none;" d="M116 159L117 160L116 159z"/>
<path style="fill:#8fd9f6; stroke:none;" d="M317 159L318 160L317 159z"/>
<path style="fill:#c7edfa; stroke:none;" d="M241.333 160.667C241.278 160.722 241.222 161.778 241.667 161.333C241.722 161.278 241.778 160.222 241.333 160.667z"/>
<path style="fill:#4abdeb; stroke:none;" d="M115 161L116 162L115 161z"/>
<path style="fill:#a5e5fa; stroke:none;" d="M191 161L192 162L191 161z"/>
<path style="fill:#6fd4f4; stroke:none;" d="M247 161L247 166C247.83 163.969 247.83 163.03 247 161z"/>
<path style="fill:#afe4f7; stroke:none;" d="M318 161L319 162L318 161z"/>
<path style="fill:#61c8ed; stroke:none;" d="M318 162L319 163L318 162z"/>
<path style="fill:#6fd7f7; stroke:none;" d="M190 163L191 164L190 163z"/>
<path style="fill:#93dff7; stroke:none;" d="M240 163L241 164L240 163z"/>
<path style="fill:#a3e0f6; stroke:none;" d="M113 164L114 165L113 164z"/>
<path style="fill:#71c8ec; stroke:none;" d="M160.333 164.667C160.278 164.722 160.222 165.778 160.667 165.333C160.722 165.278 160.778 164.222 160.333 164.667z"/>
<path style="fill:#01a4de; stroke:none;" d="M318 164C315.611 172.752 312.104 181.165 309.895 190C304.195 212.799 302.51 234.806 304.829 258C305.513 264.831 302.91 274.378 305.599 280.739C306.451 282.756 308.608 284.353 310 286C305.368 286.993 307.833 291.46 308.611 295C310.476 303.481 312.78 311.797 315.667 320C321.338 336.119 328.923 351.736 338.333 366C341.213 370.366 344.469 377.566 349.083 380.278C354.218 383.295 363.162 382.896 369 384C366.355 378.066 361.497 373.2 357.63 368C351.982 360.406 346.821 352.323 342.309 344C326.628 315.075 319.321 283.589 317.09 251C315.987 234.903 318.745 217.73 322.003 202C323.217 196.14 326.02 189.959 326.35 184C326.687 177.911 322.141 168.267 318 164z"/>
<path style="fill:#71cdf0; stroke:none;" d="M319 164L320 165L319 164z"/>
<path style="fill:#b3eafb; stroke:none;" d="M189 165L190 166L189 165z"/>
<path style="fill:#dbf5fd; stroke:none;" d="M196 165L196 170C196.83 167.969 196.83 167.031 196 165z"/>
<path style="fill:#8bd5f3; stroke:none;" d="M112 166L113 167L112 166z"/>
<path style="fill:#a5e5fa; stroke:none;" d="M188 166L189 167L188 166z"/>
<path style="fill:#9fdef4; stroke:none;" d="M320 166L321 167L320 166z"/>
<path style="fill:#01a6e8; stroke:none;" d="M112 167C105.751 181.501 96.5941 195.008 89.2554 209C86.4002 214.444 80.2581 220.905 86 226L90 216C93.9624 219.008 98.1491 224.258 103 225.687C106.088 226.596 109.816 225.058 113 225.019C120.842 224.921 125.684 228.816 130 235C136.598 228.53 141.754 220.294 147.424 213C149.241 210.663 152.986 207.321 152.833 204.09C152.658 200.415 146.444 196.364 144 194.039C137.816 188.155 131.335 182.552 125 176.83C120.821 173.055 117.336 169.067 112 167z"/>
<path style="fill:#95e1fa; stroke:none;" d="M185.667 167.333C185.222 167.778 186.278 167.722 186.333 167.667C186.778 167.222 185.722 167.278 185.667 167.333z"/>
<path style="fill:#a5e5fa; stroke:none;" d="M211 167L210 169C211.263 168.029 211.392 168.306 211 167z"/>
<path style="fill:#6fd4f4; stroke:none;" d="M235 167L236 168L235 167z"/>
<path style="fill:#7acff1; stroke:none;" d="M111 168L112 169L111 168z"/>
<path style="fill:#c7edfa; stroke:none;" d="M156.667 169.333C156.222 169.778 157.278 169.722 157.333 169.667C157.778 169.222 156.722 169.278 156.667 169.333z"/>
<path style="fill:#59cef4; stroke:none;" d="M207 169L208 170L207 169z"/>
<path style="fill:#61c7ea; stroke:none;" d="M321 169L322 170L321 169z"/>
<path style="fill:#efefef; stroke:none;" d="M52 170L52 173L56 173L56 170L52 170z"/>
<path style="fill:#5cc3ee; stroke:none;" d="M110 170L111 171L110 170z"/>
<path style="fill:#71c8ec; stroke:none;" d="M155.333 170.667C155.278 170.722 155.222 171.778 155.667 171.333C155.722 171.278 155.778 170.222 155.333 170.667z"/>
<path style="fill:#b3eafb; stroke:none;" d="M196.333 170.667C196.278 170.722 196.222 171.778 196.667 171.333C196.722 171.278 196.778 170.222 196.333 170.667z"/>
<path style="fill:#8fd7f2; stroke:none;" d="M322 171L323 172L322 171z"/>
<path style="fill:#45bded; stroke:none;" d="M109 172L110 173L109 172z"/>
<path style="fill:#03baf2; stroke:none;" d="M148 227L155 227L155 236L150 236L150 244L155 244C155 255.154 151.811 269.611 161.005 277.571C162.88 279.195 165.945 282.509 168.721 282.079C172.53 281.49 171.986 274.671 171.999 272C172.031 265.536 173.668 256.171 171.107 250.129C170.077 247.698 167.674 245.972 166 244L175 244C175 220.073 176.983 195.257 183 172C175.711 172.561 172.37 179.693 168.21 185C162.235 192.623 152.42 201.818 149.184 211C147.46 215.89 148 221.895 148 227z"/>
<path style="fill:#9fdef4; stroke:none;" d="M323 173L324 174L323 173z"/>
<path style="fill:#a3e0f6; stroke:none;" d="M107 175L108 176L107 175z"/>
<path style="fill:#61c7ea; stroke:none;" d="M324 176L325 177L324 176z"/>
<path style="fill:#89d5f5; stroke:none;" d="M106 177L107 178L106 177z"/>
<path style="fill:#9fdef4; stroke:none;" d="M325 178L326 179L325 178z"/>
<path style="fill:#75cff1; stroke:none;" d="M105 179L106 180L105 179z"/>
<path style="fill:#56c3f0; stroke:none;" d="M104 181L105 182L104 181z"/>
<path style="fill:#61c7ea; stroke:none;" d="M326 181L327 182L326 181z"/>
<path style="fill:#8fd7f2; stroke:none;" d="M327 183L328 184L327 183z"/>
<path style="fill:#01a2da; stroke:none;" d="M326 184C324.864 191.721 322.288 199.306 320.803 207C318.768 217.548 317.822 228.309 317.09 239C314.696 273.949 325.052 311.108 340.756 342C346.314 352.933 353.172 363.296 360.651 373C363.342 376.492 366.241 381.452 370.289 383.486C375.555 386.132 384.191 385.952 390 386C382.578 375.463 372.677 366.77 365.344 356C345.977 327.556 334.428 295.239 331.17 261C329.925 247.922 330.752 234.01 332.166 221C332.789 215.268 335.602 208.71 335.066 203C334.563 197.656 330.425 187.019 326 184z"/>
<path style="fill:#9fdef4; stroke:none;" d="M328 185L329 186L328 185z"/>
<path style="fill:#9fdef7; stroke:none;" d="M101 186L102 187L101 186z"/>
<path style="fill:#87d5f5; stroke:none;" d="M100 188L101 189L100 188z"/>
<path style="fill:#61c4ea; stroke:none;" d="M329 188L330 189L329 188z"/>
<path style="fill:#72cef3; stroke:none;" d="M99 190L100 191L99 190z"/>
<path style="fill:#9fdbf0; stroke:none;" d="M330 190L331 191L330 190z"/>
<path style="fill:#56c3f0; stroke:none;" d="M98 192L99 193L98 192z"/>
<path style="fill:#61c4ea; stroke:none;" d="M331 193L332 194L331 193z"/>
<path style="fill:#b5e6fa; stroke:none;" d="M96 195L97 196L96 195z"/>
<path style="fill:#7fceea; stroke:none;" d="M332 195L333 196L332 195z"/>
<path style="fill:#9fdef7; stroke:none;" d="M95 197L96 198L95 197z"/>
<path style="fill:#9fdbf0; stroke:none;" d="M333 197L334 198L333 197z"/>
<path style="fill:#83d6f5; stroke:none;" d="M94 199L95 200L94 199z"/>
<path style="fill:#61c4e6; stroke:none;" d="M334 200L335 201L334 200z"/>
<path style="fill:#72cef3; stroke:none;" d="M93 201L94 202L93 201z"/>
<path style="fill:#8fd4eb; stroke:none;" d="M335 202L336 203L335 202z"/>
<path style="fill:#51c6f4; stroke:none;" d="M92 203L93 204L92 203z"/>
<path style="fill:#019ed6; stroke:none;" d="M335 204C325.226 254.402 332.971 307.535 361.344 351C367.307 360.134 373.852 368.896 381.17 377C384.018 380.155 387.364 384.602 391.285 386.436C397.877 389.519 406.907 388.683 414 390C411.373 384.284 406.502 381.102 402 376.91C395.45 370.811 389.363 364.08 383.888 357C364.482 331.904 352.051 303.279 346.92 272C345.333 262.328 345 252.78 345 243C345 238.515 344.204 233.691 347 230C343.579 221.661 340.757 210.974 335 204z"/>
<path style="fill:#afe1f3; stroke:none;" d="M336 204L337 205L336 204z"/>
<path style="fill:#61c4e6; stroke:none;" d="M336 205L337 206L336 205z"/>
<path style="fill:#b5e6fa; stroke:none;" d="M90 206L91 207L90 206z"/>
<path style="fill:#71c9e8; stroke:none;" d="M337 207L338 208L337 207z"/>
<path style="fill:#95dbf7; stroke:none;" d="M89 208L90 209L89 208z"/>
<path style="fill:#9fdbf0; stroke:none;" d="M338 209L339 210L338 209z"/>
<path style="fill:#7fd5f3; stroke:none;" d="M88 210L89 211L88 210z"/>
<path style="fill:#6ed0f4; stroke:none;" d="M87 212L88 213L87 212z"/>
<path style="fill:#03bdf5; stroke:none;" d="M147 212C142.535 219.17 134.006 225.984 131.324 234C130.219 237.303 131.951 240.754 132.535 244C133.004 246.602 132.669 249.503 133.603 251.996C135.524 257.121 142.239 261.793 147 264C147 259.461 148.003 253.362 145.687 249.261C144.565 247.275 142.468 245.729 141 244L150 244L150 236L146 236C146.027 227.992 148.364 220.06 149 212L147 212z"/>
<path style="fill:#61c4e6; stroke:none;" d="M339 212L340 213L339 212z"/>
<path style="fill:#4fc3f3; stroke:none;" d="M86 214L87 215L86 214z"/>
<path style="fill:#8fd4eb; stroke:none;" d="M340 214L341 215L340 214z"/>
<path style="fill:#0171a1; stroke:none;" d="M90 216C87.0333 221.63 85.136 227.618 85 234C87.5323 234.579 91.0496 236.215 93.625 235.303C96.9951 234.11 100.096 229.232 103 227C99.5779 222.525 95.0079 218.595 90 216z"/>
<path style="fill:#9fdbf0; stroke:none;" d="M341 216L342 217L341 216z"/>
<path style="fill:#b2e5f7; stroke:none;" d="M84 217L85 218L84 217z"/>
<path style="fill:#8fdbf9; stroke:none;" d="M83 219L84 220L83 219z"/>
<path style="fill:#61c4e6; stroke:none;" d="M342 219L343 220L342 219z"/>
<path style="fill:#7fd5f3; stroke:none;" d="M82 221L83 222L82 221z"/>
<path style="fill:#9fdbf0; stroke:none;" d="M343 221L344 222L343 221z"/>
<path style="fill:#6ed0f4; stroke:none;" d="M81 223L82 224L81 223z"/>
<path style="fill:#01b4fa; stroke:none;" d="M82 223C70.9795 239.711 62.2323 258.401 52.6914 276C45.815 288.684 36.9372 301.433 32 315L50 315C52.2367 314.995 55.3747 315.445 57.2724 313.972C58.9989 312.632 59.4025 309.954 60.0247 307.999C61.5132 303.322 63.1472 298.693 64.5864 294C69.7157 277.273 75.6394 260.787 80.5756 244C82.5561 237.265 88.4173 228.48 82 223z"/>
<path style="fill:#61c4e6; stroke:none;" d="M344 224L345 225L344 224z"/>
<path style="fill:#4bc5f3; stroke:none;" d="M80 225L81 226L80 225z"/>
<path style="fill:#b2e5f7; stroke:none;" d="M107.667 225.333C107.222 225.778 108.278 225.722 108.333 225.667C108.778 225.222 107.722 225.278 107.667 225.333z"/>
<path style="fill:#6fcdef; stroke:none;" d="M119 225L120 226L119 225z"/>
<path style="fill:#93dcf7; stroke:none;" d="M104 226L105 227L104 226z"/>
<path style="fill:#b2e5f7; stroke:none;" d="M121 226L122 227L121 226z"/>
<path style="fill:#8fd4eb; stroke:none;" d="M345 226L346 227L345 226z"/>
<path style="fill:#b1d4e2; stroke:none;" d="M102 227L103 228L102 227z"/>
<path style="fill:#b2e5f7; stroke:none;" d="M123 227L124 228L123 227z"/>
<path style="fill:#6fd9f9; stroke:none;" d="M146 227L146 236C147.256 233.006 147.256 229.994 146 227z"/>
<path style="fill:#dbf5fd; stroke:none;" d="M154 227L154 235C155.161 232.23 155.161 229.77 154 227z"/>
<path style="fill:#afe6fc; stroke:none;" d="M78 228L79 229L78 228z"/>
<path style="fill:#6fadc7; stroke:none;" d="M100 228L101 229L100 228z"/>
<path style="fill:#dbf5fd; stroke:none;" d="M111 228C112.506 228.683 113.315 228.826 115 229C113.494 228.317 112.685 228.174 111 228z"/>
<path style="fill:#9fd9f0; stroke:none;" d="M346 228L347 229L346 228z"/>
<path style="fill:#a3cbdd; stroke:none;" d="M99 229L100 230L99 229z"/>
<path style="fill:#57c7f3; stroke:none;" d="M109 229L110 230L109 229z"/>
<path style="fill:#01a9ed; stroke:none;" d="M107 230C112.016 235.406 117.978 240.762 124 245C122.612 234.251 118.598 227.854 107 230z"/>
<path style="fill:#83d6f5; stroke:none;" d="M116 229L117 230L116 229z"/>
<path style="fill:#57c5f1; stroke:none;" d="M126 229L127 230L126 229z"/>
<path style="fill:#8fdbf9; stroke:none;" d="M77 230L78 231L77 230z"/>
<path style="fill:#bdd9e5; stroke:none;" d="M106 230L107 231L106 230z"/>
<path style="fill:#6ed0f4; stroke:none;" d="M118 230L119 231L118 230z"/>
<path style="fill:#019cd2; stroke:none;" d="M345 230C345 243.051 344.631 256.035 346.285 269C350.274 300.246 362.744 329.875 381.627 355C389.972 366.104 399.468 377.115 411 385C409.299 375.431 403.816 362.073 398.366 354C393.966 347.483 388.608 341.706 384.425 335C373.68 317.774 365.615 298.953 361.6 279C360.284 272.458 360.417 265.394 358.877 259C357.561 253.543 354.513 248.195 352.397 243C350.577 238.534 349.13 232.729 345 230z"/>
<path style="fill:#bddce8; stroke:none;" d="M97 231L98 232L97 231z"/>
<path style="fill:#93c3d7; stroke:none;" d="M105 231L104 233C105.263 232.029 105.392 232.306 105 231z"/>
<path style="fill:#0177a7; stroke:none;" d="M106.133 232.176C102.131 233.764 102.042 239.459 102.004 243C101.902 252.528 107.577 260.264 117.985 255.772C129.179 250.939 120.934 241.623 115 236.58C112.758 234.675 109.46 230.856 106.133 232.176z"/>
<path style="fill:#57c7f3; stroke:none;" d="M119 231L120 232L119 231z"/>
<path style="fill:#61c0e2; stroke:none;" d="M347 231L348 232L347 231z"/>
<path style="fill:#7ad5f8; stroke:none;" d="M76 232L77 233L76 232z"/>
<path style="fill:#0181b4; stroke:none;" d="M84 232C80.8867 243.738 74.5577 255.795 74 268C82.8066 270.037 91.429 273.144 100 276C103.853 277.284 108.878 279.827 112.985 278.382C117.575 276.767 120.228 271.332 121.557 267C122.469 264.029 122.865 261.089 123 258C119.068 259.613 115.309 261.575 111 261.906C95.222 263.118 91.6683 248.56 94 236C90.3486 235.152 87.1954 233.969 84 232z"/>
<path style="fill:#83b9d1; stroke:none;" d="M96 232L97 233L96 232z"/>
<path style="fill:#6ed0f4; stroke:none;" d="M120 232L121 233L120 232z"/>
<path style="fill:#bddce8; stroke:none;" d="M103 233L104 234L103 233z"/>
<path style="fill:#9fd9f0; stroke:none;" d="M348 233L349 234L348 233z"/>
<path style="fill:#5dcbf5; stroke:none;" d="M75 234L76 235L75 234z"/>
<path style="fill:#bddce8; stroke:none;" d="M102 235L103 236L102 235z"/>
<path style="fill:#b3ebfd; stroke:none;" d="M147 235C149.613 236.098 152.165 235.993 155 236C152.387 234.902 149.835 235.007 147 235z"/>
<path style="fill:#48c5f6; stroke:none;" d="M74 236L75 237L74 236z"/>
<path style="fill:#57a3c1; stroke:none;" d="M102 236L103 237L102 236z"/>
<path style="fill:#83d6f5; stroke:none;" d="M122 236L123 237L122 236z"/>
<path style="fill:#a5e8fb; stroke:none;" d="M130 236L131 237L130 236z"/>
<path style="fill:#61c0e2; stroke:none;" d="M349 236L350 237L349 236z"/>
<path style="fill:#bddce8; stroke:none;" d="M93.3333 238.667C93.2778 238.722 93.2222 239.778 93.6667 239.333C93.7223 239.278 93.7778 238.222 93.3333 238.667z"/>
<path style="fill:#b1d4e2; stroke:none;" d="M101.333 238.667C101.278 238.722 101.222 239.778 101.667 239.333C101.722 239.278 101.778 238.222 101.333 238.667z"/>
<path style="fill:#b2e5f7; stroke:none;" d="M123.333 238.667C123.278 238.722 123.222 239.778 123.667 239.333C123.722 239.278 123.778 238.222 123.333 238.667z"/>
<path style="fill:#7fceea; stroke:none;" d="M350 238L351 239L350 238z"/>
<path style="fill:#a5e5fa; stroke:none;" d="M72 239L73 240L72 239z"/>
<path style="fill:#d0f2fe; stroke:none;" d="M131.333 239.667C131.278 239.722 131.222 240.778 131.667 240.333C131.722 240.278 131.778 239.222 131.333 239.667z"/>
<path style="fill:#0194d0; stroke:none;" d="M81.3333 240.667C81.2778 240.722 81.2222 241.778 81.6667 241.333C81.7223 241.278 81.7778 240.222 81.3333 240.667z"/>
<path style="fill:#6fb1cd; stroke:none;" d="M101 240L101 247C102.059 244.466 102.059 242.534 101 240z"/>
<path style="fill:#57c7f3; stroke:none;" d="M123.333 240.667C123.278 240.722 123.222 241.778 123.667 241.333C123.722 241.278 123.778 240.222 123.333 240.667z"/>
<path style="fill:#9fd9ed; stroke:none;" d="M351 240L352 241L351 240z"/>
<path style="fill:#8fdbf9; stroke:none;" d="M71 241L72 242L71 241z"/>
<path style="fill:#7ad5f8; stroke:none;" d="M70 243L71 244L70 243z"/>
<path style="fill:#6fd9f9; stroke:none;" d="M132.333 243.667C132.278 243.722 132.222 244.778 132.667 244.333C132.722 244.278 132.778 243.222 132.333 243.667z"/>
<path style="fill:#d0f2fe; stroke:none;" d="M189.667 243.333C189.222 243.778 190.278 243.722 190.333 243.667C190.778 243.222 189.722 243.278 189.667 243.333z"/>
<path style="fill:#95e1fa; stroke:none;" d="M196.667 243.333C196.222 243.778 197.278 243.722 197.333 243.667C197.778 243.222 196.722 243.278 196.667 243.333z"/>
<path style="fill:#d0f2fe; stroke:none;" d="M220 243C221.248 243.685 221.548 243.749 223 244C221.752 243.315 221.452 243.251 220 243z"/>
<path style="fill:#59c9ef; stroke:none;" d="M263 243L264 244L263 243z"/>
<path style="fill:#b1e7f7; stroke:none;" d="M271 243L272 244L271 243z"/>
<path style="fill:#59c9ef; stroke:none;" d="M272 243L273 244L272 243z"/>
<path style="fill:#83d5f2; stroke:none;" d="M288 243L289 244L288 243z"/>
<path style="fill:#bde9f7; stroke:none;" d="M295.667 243.333C295.222 243.778 296.278 243.722 296.333 243.667C296.778 243.222 295.722 243.278 295.667 243.333z"/>
<path style="fill:#6fcdef; stroke:none;" d="M297 243L298 244L297 243z"/>
<path style="fill:#61c0e2; stroke:none;" d="M352 243L353 244L352 243z"/>
<path style="fill:#dbecf4; stroke:none;" d="M124 244L124 250C124.951 247.715 124.951 246.285 124 244z"/>
<path style="fill:#6fd9f9; stroke:none;" d="M141.333 244.667C141.278 244.722 141.222 245.778 141.667 245.333C141.722 245.278 141.778 244.222 141.333 244.667z"/>
<path style="fill:#b3ebfd; stroke:none;" d="M154 244L154 278C156.802 271.323 155 261.215 155 254C155 250.581 155.328 247.166 154 244z"/>
<path style="fill:#6fd7f7; stroke:none;" d="M166.333 244.667C166.278 244.722 166.222 245.778 166.667 245.333C166.722 245.278 166.778 244.222 166.333 244.667z"/>
<path style="fill:#b3eafb; stroke:none;" d="M179 244L179 247C179.696 245.446 179.696 245.554 179 244M199 244L200 245L199 244z"/>
<path style="fill:#c7edfa; stroke:none;" d="M241 244C241.406 246.092 241.217 246.02 243 247C242.309 245.612 242.015 245.139 241 244z"/>
<path style="fill:#71d1f1; stroke:none;" d="M261 244L262 245L261 244z"/>
<path style="fill:#59c9ef; stroke:none;" d="M274 244L275 245L274 244z"/>
<path style="fill:#93dcf5; stroke:none;" d="M286 244L287 245L286 244z"/>
<path style="fill:#6fcdef; stroke:none;" d="M299 244L300 245L299 244z"/>
<path style="fill:#5bcbf7; stroke:none;" d="M69 245L70 246L69 245z"/>
<path style="fill:#b3ebfd; stroke:none;" d="M132 245L132 255C133.346 251.793 133.346 248.207 132 245z"/>
<path style="fill:#95e1fa; stroke:none;" d="M185 245L186 246L185 245z"/>
<path style="fill:#93dcf5; stroke:none;" d="M275 245C275.545 246.635 275.365 246.455 277 247C276.455 245.365 276.635 245.545 275 245z"/>
<path style="fill:#59c7ed; stroke:none;" d="M284 245L285 246L284 245z"/>
<path style="fill:#93d9f2; stroke:none;" d="M300 245C300.545 246.635 300.365 246.455 302 247C301.455 245.365 301.635 245.545 300 245z"/>
<path style="fill:#8fd4eb; stroke:none;" d="M353 245L354 246L353 245z"/>
<path style="fill:#83d6f5; stroke:none;" d="M258 246L259 247L258 246z"/>
<path style="fill:#93dcf5; stroke:none;" d="M283 246L284 247L283 246z"/>
<path style="fill:#48c5f6; stroke:none;" d="M68 247L69 248L68 247z"/>
<path style="fill:#bddce8; stroke:none;" d="M101.333 247.667C101.278 247.722 101.222 248.778 101.667 248.333C101.722 248.278 101.778 247.222 101.333 247.667z"/>
<path style="fill:#6fd7f7; stroke:none;" d="M179 247C179.406 249.092 179.217 249.02 181 250C180.309 248.612 180.015 248.139 179 247z"/>
<path style="fill:#59cef4; stroke:none;" d="M207 247L204 251C205.756 249.623 206.54 249.106 207 247z"/>
<path style="fill:#93dcf7; stroke:none;" d="M244 247L245 248L244 247z"/>
<path style="fill:#dbf5fd; stroke:none;" d="M253 247C253.307 249.123 253.382 249.686 255 251C254.404 249.44 253.911 248.377 253 247z"/>
<path style="fill:#93dcf5; stroke:none;" d="M257 247L258 248L257 247z"/>
<path style="fill:#b2e5f7; stroke:none;" d="M282 247L283 248L282 247z"/>
<path style="fill:#afdef0; stroke:none;" d="M354 247L355 248L354 247z"/>
<path style="fill:#d1e8f1; stroke:none;" d="M93 248L93 251C93.6961 249.446 93.6961 249.554 93 248z"/>
<path style="fill:#59d1f5; stroke:none;" d="M181 248L182 249L181 248z"/>
<path style="fill:#6fd4f4; stroke:none;" d="M188 248C189.248 248.685 189.548 248.749 191 249C189.752 248.315 189.452 248.251 188 248z"/>
<path style="fill:#d0f2fe; stroke:none;" d="M191.667 248.333C191.222 248.778 192.278 248.722 192.333 248.667C192.778 248.222 191.722 248.278 191.667 248.333z"/>
<path style="fill:#6fd4f4; stroke:none;" d="M212 248C213.506 248.683 214.315 248.826 216 249C214.494 248.317 213.685 248.174 212 248z"/>
<path style="fill:#d0f2fe; stroke:none;" d="M216.667 248.333C216.222 248.778 217.278 248.722 217.333 248.667C217.778 248.222 216.722 248.278 216.667 248.333z"/>
<path style="fill:#82d9f6; stroke:none;" d="M245 248L246 249L245 248z"/>
<path style="fill:#71d1f1; stroke:none;" d="M262 248C263.506 248.683 264.315 248.826 266 249C264.494 248.317 263.685 248.174 262 248z"/>
<path style="fill:#a3e0f6; stroke:none;" d="M286.667 248.333C286.222 248.778 287.278 248.722 287.333 248.667C287.778 248.222 286.722 248.278 286.667 248.333z"/>
<path style="fill:#6fcff1; stroke:none;" d="M288 248C289.248 248.685 289.548 248.749 291 249C289.752 248.315 289.452 248.251 288 248z"/>
<path style="fill:#61c0e2; stroke:none;" d="M354 248L355 249L354 248z"/>
<path style="fill:#6fd9f9; stroke:none;" d="M146.333 249.667C146.278 249.722 146.222 250.778 146.667 250.333C146.722 250.278 146.778 249.222 146.333 249.667z"/>
<path style="fill:#6fd7f7; stroke:none;" d="M171.333 249.667C171.278 249.722 171.222 250.778 171.667 250.333C171.722 250.278 171.778 249.222 171.333 249.667z"/>
<path style="fill:#a5e5fa; stroke:none;" d="M185 249L186 250L185 249z"/>
<path style="fill:#03b7f0; stroke:none;" d="M185 286L172 286C176.021 291.59 181.854 295.627 187 300.155C194.963 307.162 202.798 315.681 212 321C211.046 309.319 207.478 297.686 206 286L192 286C193.336 283.568 195.61 281.667 196.428 278.946C197.097 276.723 196.988 274.294 196.999 272C197.032 265.39 199.32 248.91 188.999 249.167C177.85 249.445 180 263.536 180 271C180 273.847 179.569 277.194 180.599 279.909C181.471 282.208 183.523 284.08 185 286z"/>
<path style="fill:#59cef4; stroke:none;" d="M193 249C193.545 250.635 193.365 250.455 195 251C194.455 249.365 194.635 249.545 193 249z"/>
<path style="fill:#a5e5fa; stroke:none;" d="M210 249L211 250L210 249z"/>
<path style="fill:#03b4ed; stroke:none;" d="M210 286L206 286C206.635 294.049 208.194 302.093 209.801 310C210.578 313.824 211.034 318.533 212.988 321.961C215.014 325.511 218.947 328.112 222 330.729C227.376 335.337 232.52 341.032 239 344C232.774 324.867 228.719 305.736 225 286L217 286C218.439 284.065 220.368 282.181 221.262 279.909C222.232 277.445 221.996 274.594 222 272C222.011 265.533 224.472 250.091 214.995 249.192C203.136 248.067 205 263.608 205 271C205 273.847 204.569 277.194 205.599 279.909C206.471 282.208 208.523 284.08 210 286z"/>
<path style="fill:#59cef4; stroke:none;" d="M218 249C218.545 250.635 218.365 250.455 220 251C219.455 249.365 219.635 249.545 218 249z"/>
<path style="fill:#01aee8; stroke:none;" d="M259 286L244 286C248.001 307.237 252.751 327.709 260.319 348C262.497 353.837 265.309 365.221 270.418 369.062C273.023 371.02 276.915 370.946 280 371.424C287.684 372.617 295.203 373.995 303 374C299.979 365.698 294.992 358.044 291.309 350C285.013 336.25 280.142 321.661 276.475 307C274.6 299.5 275.534 286.317 266 286C272.216 277.918 271.119 269.937 270.996 260C270.946 255.929 270.759 250.53 265.945 249.323C261.452 248.196 257.259 251.091 255.318 255.005C252.526 260.633 252.936 273.001 254.723 278.946C255.539 281.661 257.673 283.574 259 286z"/>
<path style="fill:#01a8e2; stroke:none;" d="M349 381C342.77 370.064 334.997 360.063 328.861 349C318.368 330.081 309.896 307.509 307 286L292 286C296.513 276.914 297.695 265.359 295.772 255.005C294.99 250.798 288.609 246.085 285.028 250.603C282.406 253.911 284.797 259.496 285.545 263C287.271 271.086 287.381 279.785 288.753 288C292.59 310.978 300.352 333.201 310.753 354C314.171 360.834 318.151 371.639 324.329 376.397C329.662 380.505 342.403 380.479 349 381z"/>
<path style="fill:#a2e3fc; stroke:none;" d="M66 250L67 251L66 250z"/>
<path style="fill:#a3e0f6; stroke:none;" d="M258 250L259 251L258 250z"/>
<path style="fill:#c7edfa; stroke:none;" d="M278.667 250.333C278.222 250.778 279.278 250.722 279.333 250.667C279.778 250.222 278.722 250.278 278.667 250.333z"/>
<path style="fill:#a3e0f6; stroke:none;" d="M283 250L284 251L283 250z"/>
<path style="fill:#cfeefa; stroke:none;" d="M303.333 250.667C303.278 250.722 303.222 251.778 303.667 251.333C303.722 251.278 303.778 250.222 303.333 250.667z"/>
<path style="fill:#71c6e5; stroke:none;" d="M355 250L356 251L355 250z"/>
<path style="fill:#b1d7e5; stroke:none;" d="M102 251L103 252L102 251z"/>
<path style="fill:#57a6c6; stroke:none;" d="M123 251L124 252L123 251z"/>
<path style="fill:#b3eafb; stroke:none;" d="M195 251L196 252L195 251z"/>
<path style="fill:#93dff7; stroke:none;" d="M220 251L221 252L220 251M229.333 251.667C229.278 251.722 229.222 252.778 229.667 252.333C229.722 252.278 229.778 251.222 229.333 251.667z"/>
<path style="fill:#b1e7f9; stroke:none;" d="M246 251L246 279C248.604 272.793 248.604 257.207 246 251z"/>
<path style="fill:#93dcf5; stroke:none;" d="M257 251L256 253C257.263 252.029 257.392 252.306 257 251M282 251L281 253C282.263 252.029 282.392 252.306 282 251z"/>
<path style="fill:#01abe5; stroke:none;" d="M283 251C278.505 257.249 279.997 265.597 280 273C280.002 277.367 279.299 281.44 284 283C282.487 291.275 285.115 298.993 287.127 307C291.471 324.292 297.674 341.1 305.756 357C310.473 366.279 314.023 375.832 325 378C311.631 353.896 299.207 330.983 292.374 304C289.54 292.807 287.647 281.46 286.285 270C285.554 263.846 285.409 256.727 283 251z"/>
<path style="fill:#89dbfb; stroke:none;" d="M65 252L66 253L65 252z"/>
<path style="fill:#b1e7f7; stroke:none;" d="M270 252L271 253L270 252z"/>
<path style="fill:#93dcf5; stroke:none;" d="M295 252L296 253L295 252z"/>
<path style="fill:#9fd9ed; stroke:none;" d="M356 252L357 253L356 252z"/>
<path style="fill:#a3d1e4; stroke:none;" d="M94 253L95 254L94 253z"/>
<path style="fill:#bddce8; stroke:none;" d="M103 253L104 254L103 253z"/>
<path style="fill:#0181b4; stroke:none;" d="M133 253C132.438 260.062 129.841 266.254 128 273C134.199 275.017 140.474 277.431 147 278C147 274.141 147.911 268.902 146.397 265.285C144.29 260.254 137.352 255.976 133 253z"/>
<path style="fill:#b3eafb; stroke:none;" d="M196.333 253.667C196.278 253.722 196.222 254.778 196.667 254.333C196.722 254.278 196.778 253.222 196.333 253.667z"/>
<path style="fill:#59cef4; stroke:none;" d="M206 253L207 254L206 253z"/>
<path style="fill:#93dff7; stroke:none;" d="M221 253L221 256C221.696 254.446 221.696 254.554 221 253z"/>
<path style="fill:#dbf5fd; stroke:none;" d="M229 253L229 279C231.477 273.097 231.477 258.903 229 253z"/>
<path style="fill:#59c9ef; stroke:none;" d="M270 253L271 254L270 253z"/>
<path style="fill:#75d5f9; stroke:none;" d="M64 254L65 255L64 254z"/>
<path style="fill:#93c8de; stroke:none;" d="M104 254C104.545 255.635 104.365 255.455 106 256C105.455 254.365 105.635 254.545 104 254z"/>
<path style="fill:#57a6c6; stroke:none;" d="M120 254L121 255L120 254z"/>
<path style="fill:#b3eafb; stroke:none;" d="M180 254L181 255L180 254M205 254L206 255L205 254z"/>
<path style="fill:#a3d1e4; stroke:none;" d="M95 255L96 256L95 255z"/>
<path style="fill:#bddce8; stroke:none;" d="M119 255L120 256L119 255z"/>
<path style="fill:#6fb4d0; stroke:none;" d="M132 255L132 258C132.696 256.446 132.696 256.554 132 255z"/>
<path style="fill:#6fd4f4; stroke:none;" d="M196.333 255.667C196.278 255.722 196.222 256.778 196.667 256.333C196.722 256.278 196.778 255.222 196.333 255.667z"/>
<path style="fill:#6fcff1; stroke:none;" d="M279 255L279 280C281.413 274.25 281.413 260.75 279 255z"/>
<path style="fill:#6fcdef; stroke:none;" d="M304 255L304 279C306.349 273.403 306.349 260.597 304 255z"/>
<path style="fill:#61c0e2; stroke:none;" d="M357 255L358 256L357 255z"/>
<path style="fill:#57cbf9; stroke:none;" d="M63 256L64 257L63 256z"/>
<path style="fill:#6fb4d0; stroke:none;" d="M107 256L108 257L107 256z"/>
<path style="fill:#83bed7; stroke:none;" d="M116 256L117 257L116 256z"/>
<path style="fill:#b3eafb; stroke:none;" d="M179 256L179 278C181.219 272.713 181.219 261.287 179 256z"/>
<path style="fill:#dbf5fd; stroke:none;" d="M204 256L204 280C206.349 274.403 206.349 261.597 204 256z"/>
<path style="fill:#6ed0f4; stroke:none;" d="M254 256L255 257L254 256z"/>
<path style="fill:#b2e5f7; stroke:none;" d="M296 256L296 260C296.71 258.241 296.71 257.759 296 256z"/>
<path style="fill:#b1d7e5; stroke:none;" d="M109 257C110.506 257.683 111.315 257.826 113 258C111.494 257.317 110.685 257.174 109 257z"/>
<path style="fill:#dbecf4; stroke:none;" d="M113.667 257.333C113.222 257.778 114.278 257.722 114.333 257.667C114.778 257.222 113.722 257.278 113.667 257.333z"/>
<path style="fill:#b1d7e5; stroke:none;" d="M122 257L123 258L122 257z"/>
<path style="fill:#83bed7; stroke:none;" d="M123.333 257.667C123.278 257.722 123.222 258.778 123.667 258.333C123.722 258.278 123.778 257.222 123.333 257.667z"/>
<path style="fill:#b1e7f7; stroke:none;" d="M271 257L271 279C273.219 273.713 273.219 262.287 271 257z"/>
<path style="fill:#8fd4eb; stroke:none;" d="M358 257L359 258L358 257z"/>
<path style="fill:#57a8ca; stroke:none;" d="M121 258L122 259L121 258z"/>
<path style="fill:#bddce8; stroke:none;" d="M99 259L100 260L99 259z"/>
<path style="fill:#6fb4d0; stroke:none;" d="M119 259L120 260L119 259z"/>
<path style="fill:#c7e3ee; stroke:none;" d="M123 259L123 262C123.696 260.446 123.696 260.554 123 259M131 259L131 262C131.696 260.446 131.696 260.554 131 259z"/>
<path style="fill:#9fd9ed; stroke:none;" d="M359 259L360 260L359 259z"/>
<path style="fill:#6fb4d0; stroke:none;" d="M117 260L118 261L117 260z"/>
<path style="fill:#dbf5fd; stroke:none;" d="M222 260L222 278C223.952 273.349 223.952 264.651 222 260z"/>
<path style="fill:#6fcdef; stroke:none;" d="M296 260L296 277C297.883 272.514 297.883 264.487 296 260z"/>
<path style="fill:#a2e3fc; stroke:none;" d="M60 261L61 262L60 261z"/>
<path style="fill:#c7e3ee; stroke:none;" d="M103 261C104.248 261.685 104.548 261.749 106 262C104.752 261.315 104.451 261.251 103 261z"/>
<path style="fill:#d1e8f1; stroke:none;" d="M111 261C112.248 261.685 112.548 261.749 114 262C112.752 261.315 112.452 261.251 111 261z"/>
<path style="fill:#6fb6d4; stroke:none;" d="M114 261L115 262L114 261z"/>
<path style="fill:#0199cf; stroke:none;" d="M359 261C359.494 284.927 369.098 309.528 380.85 330C385.444 338.002 390.603 347.326 398 353C396.108 346.082 392.742 339.618 390.011 333C384.359 319.304 378.657 305.631 372.85 292C368.682 282.214 365.698 269.291 359 261z"/>
<path style="fill:#57a8ca; stroke:none;" d="M131 262L132 263L131 262z"/>
<path style="fill:#61c0e2; stroke:none;" d="M360 262L361 263L360 262z"/>
<path style="fill:#86dbfb; stroke:none;" d="M59 263L60 264L59 263z"/>
<path style="fill:#57a8ca; stroke:none;" d="M122 263L123 264L122 263z"/>
<path style="fill:#d1e8f1; stroke:none;" d="M122.333 264.667C122.278 264.722 122.222 265.778 122.667 265.333C122.722 265.278 122.778 264.222 122.333 264.667z"/>
<path style="fill:#9fd9ed; stroke:none;" d="M361 264L362 265L361 264z"/>
<path style="fill:#75d5f9; stroke:none;" d="M58 265L59 266L58 265z"/>
<path style="fill:#018ac2; stroke:none;" d="M73 265C72.5058 268.347 69.2943 274.387 71.1211 277.49C72.7729 280.296 78.1425 281.036 81 281.859C89.4112 284.281 97.59 287.437 106 289.859C141.963 300.214 176.995 313.783 213 324C208.685 315.146 198.462 314.487 190 311.667C169.751 304.917 149.383 298.36 129 292.025C123.722 290.385 118.365 288.374 113 287.079C107.927 285.855 104.131 287.792 102 282C105.392 281.562 108.688 280.857 112 280C104.616 275.986 95.0848 273.792 87 271.424C81.8465 269.915 76.9067 268.874 73 265z"/>
<path style="fill:#93c8de; stroke:none;" d="M130 265L131 266L130 265z"/>
<path style="fill:#57cbf9; stroke:none;" d="M57 267L58 268L57 267z"/>
<path style="fill:#83c1da; stroke:none;" d="M121 267L122 268L121 267z"/>
<path style="fill:#61c0e2; stroke:none;" d="M362 267L363 268L362 267z"/>
<path style="fill:#6fb6d4; stroke:none;" d="M129 268L130 269L129 268z"/>
<path style="fill:#8fd4eb; stroke:none;" d="M363 269L364 270L363 269z"/>
<path style="fill:#b1d8e8; stroke:none;" d="M120 270L121 271L120 270z"/>
<path style="fill:#93c8de; stroke:none;" d="M128 270L129 271L128 270z"/>
<path style="fill:#9fd9ed; stroke:none;" d="M364 271L365 272L364 271z"/>
<path style="fill:#9fe3fd; stroke:none;" d="M54 272L55 273L54 272z"/>
<path style="fill:#bcdfed; stroke:none;" d="M119 272L120 273L119 272z"/>
<path style="fill:#6fb6d4; stroke:none;" d="M127 272L128 273L127 272z"/>
<path style="fill:#0186be; stroke:none;" d="M155 272C155.005 278.275 156.21 281.073 160 286L142 286C143.557 283.167 145.734 281.049 147 278C141.647 277.212 133.374 272.365 128.17 273.788C125.24 274.589 123.155 277.887 120.985 279.816C117.971 282.494 114.59 284.244 111 286C115.749 288.988 121.659 290.111 127 291.72C135.048 294.144 142.931 297.062 151 299.424C168.657 304.595 185.971 312.269 204 316C199.311 306.739 186.863 299.104 179 292.421C175.138 289.139 172.176 286.39 167 286C165.998 279.527 160.116 275.561 155 272z"/>
<path style="fill:#6fb6d4; stroke:none;" d="M118 273L119 274L118 273z"/>
<path style="fill:#86dbfb; stroke:none;" d="M53 274L54 275L53 274z"/>
<path style="fill:#61c0e2; stroke:none;" d="M365 274L366 275L365 274z"/>
<path style="fill:#83c1da; stroke:none;" d="M125 275L126 276L125 275z"/>
<path style="fill:#71d6fe; stroke:none;" d="M52 276L53 277L52 276z"/>
<path style="fill:#bcdfed; stroke:none;" d="M124 276L125 277L124 276z"/>
<path style="fill:#9fd9ed; stroke:none;" d="M366 276L367 277L366 276z"/>
<path style="fill:#b2e5f7; stroke:none;" d="M296 277L296 280C296.696 278.446 296.696 278.554 296 277z"/>
<path style="fill:#53cbfb; stroke:none;" d="M51 278L52 279L51 278z"/>
<path style="fill:#018dc6; stroke:none;" d="M69 278C68.4992 280.686 68.1174 283.27 68 286C87.9774 290.622 107.476 298.418 127 304.656C161.38 315.641 195.775 326.592 230 338C218.564 322.101 198.551 319.264 181 313.656C155.324 305.452 129.739 296.973 104 288.975C92.3632 285.358 80.8809 280.749 69 278z"/>
<path style="fill:#dbecf4; stroke:none;" d="M154.333 278.667C154.278 278.722 154.222 279.778 154.667 279.333C154.722 279.278 154.778 278.222 154.333 278.667z"/>
<path style="fill:#6ed0f4; stroke:none;" d="M254.333 278.667C254.278 278.722 254.222 279.778 254.667 279.333C254.722 279.278 254.778 278.222 254.333 278.667z"/>
<path style="fill:#b1dbeb; stroke:none;" d="M112 279L113 280L112 279z"/>
<path style="fill:#a3d1e4; stroke:none;" d="M146.333 279.667C146.278 279.722 146.222 280.778 146.667 280.333C146.722 280.278 146.778 279.222 146.333 279.667z"/>
<path style="fill:#a5e8fb; stroke:none;" d="M171.333 279.667C171.278 279.722 171.222 280.778 171.667 280.333C171.722 280.278 171.778 279.222 171.333 279.667z"/>
<path style="fill:#95e1fa; stroke:none;" d="M196.333 279.667C196.278 279.722 196.222 280.778 196.667 280.333C196.722 280.278 196.778 279.222 196.333 279.667z"/>
<path style="fill:#cfeefa; stroke:none;" d="M304.333 279.667C304.278 279.722 304.222 280.778 304.667 280.333C304.722 280.278 304.778 279.222 304.333 279.667z"/>
<path style="fill:#61c0e2; stroke:none;" d="M367 279L368 280L367 279z"/>
<path style="fill:#b1dbeb; stroke:none;" d="M110 280L111 281L110 280z"/>
<path style="fill:#82d9f6; stroke:none;" d="M221 280L222 281L221 280z"/>
<path style="fill:#59cef4; stroke:none;" d="M230 280L231 281L230 280z"/>
<path style="fill:#b3eafb; stroke:none;" d="M49 281L50 282L49 281z"/>
<path style="fill:#93cce3; stroke:none;" d="M105.667 281.333C105.222 281.778 106.278 281.722 106.333 281.667C106.778 281.222 105.722 281.278 105.667 281.333M119 281L120 282L119 281z"/>
<path style="fill:#a3d1e4; stroke:none;" d="M155 281L156 282L155 281z"/>
<path style="fill:#a5e5fa; stroke:none;" d="M180 281C180.545 282.635 180.365 282.455 182 283C181.455 281.365 181.635 281.545 180 281z"/>
<path style="fill:#b3eafb; stroke:none;" d="M205 281L206 282L205 281z"/>
<path style="fill:#93dcf7; stroke:none;" d="M245 281L246 282L245 281z"/>
<path style="fill:#71d1f1; stroke:none;" d="M270 281L269 283C270.263 282.029 270.392 282.306 270 281z"/>
<path style="fill:#6fcff1; stroke:none;" d="M295 281L296 282L295 281z"/>
<path style="fill:#7fcbe5; stroke:none;" d="M368 281L369 282L368 281z"/>
<path style="fill:#dbeff8; stroke:none;" d="M102 282L102 285C102.696 283.446 102.696 283.554 102 282z"/>
<path style="fill:#83c1da; stroke:none;" d="M156 282L157 283L156 282z"/>
<path style="fill:#a5e5fa; stroke:none;" d="M206 282L207 283L206 282z"/>
<path style="fill:#a2e3fc; stroke:none;" d="M231 282L232 283L231 282z"/>
<path style="fill:#6fd4f4; stroke:none;" d="M244 282L245 283L244 282z"/>
<path style="fill:#59c7ed; stroke:none;" d="M294 282L295 283L294 282z"/>
<path style="fill:#95e1fa; stroke:none;" d="M48 283L49 284L48 283z"/>
<path style="fill:#6fbbdb; stroke:none;" d="M116 283L117 284L116 283z"/>
<path style="fill:#56add2; stroke:none;" d="M142 283L143 284L142 283z"/>
<path style="fill:#a3d1e4; stroke:none;" d="M158 283L159 284L158 283z"/>
<path style="fill:#57abcd; stroke:none;" d="M167 283L168 284L167 283z"/>
<path style="fill:#a5e5fa; stroke:none;" d="M183 283L184 284L183 283z"/>
<path style="fill:#59cef4; stroke:none;" d="M192 283L193 284L192 283z"/>
<path style="fill:#a5e5fa; stroke:none;" d="M208 283L209 284L208 283z"/>
<path style="fill:#59cef4; stroke:none;" d="M234 283L235 284L234 283z"/>
<path style="fill:#93dff7; stroke:none;" d="M242 283L243 284L242 283z"/>
<path style="fill:#83d6f5; stroke:none;" d="M258 283L259 284L258 283z"/>
<path style="fill:#93dcf5; stroke:none;" d="M267 283L268 284L267 283z"/>
<path style="fill:#83d5f2; stroke:none;" d="M283 283L284 284L283 283z"/>
<path style="fill:#cfeefa; stroke:none;" d="M292.667 283.333C292.222 283.778 293.278 283.722 293.333 283.667C293.778 283.222 292.722 283.278 292.667 283.333z"/>
<path style="fill:#93d9f2; stroke:none;" d="M308 283L309 284L308 283z"/>
<path style="fill:#9fd9ed; stroke:none;" d="M369 283L370 284L369 283z"/>
<path style="fill:#82c6e2; stroke:none;" d="M114 284L115 285L114 284z"/>
<path style="fill:#dbecf4; stroke:none;" d="M142.333 284.667C142.278 284.722 142.222 285.778 142.667 285.333C142.722 285.278 142.778 284.222 142.333 284.667z"/>
<path style="fill:#b1d8e8; stroke:none;" d="M159.333 284.667C159.278 284.722 159.222 285.778 159.667 285.333C159.722 285.278 159.778 284.222 159.333 284.667z"/>
<path style="fill:#dbecf4; stroke:none;" d="M167.333 284.667C167.278 284.722 167.222 285.778 167.667 285.333C167.722 285.278 167.778 284.222 167.333 284.667z"/>
<path style="fill:#b3eafb; stroke:none;" d="M184.333 284.667C184.278 284.722 184.222 285.778 184.667 285.333C184.722 285.278 184.778 284.222 184.333 284.667M209.333 284.667C209.278 284.722 209.222 285.778 209.667 285.333C209.722 285.278 209.778 284.222 209.333 284.667M217.333 284.667C217.278 284.722 217.222 285.778 217.667 285.333C217.722 285.278 217.778 284.222 217.333 284.667z"/>
<path style="fill:#6fd4f4; stroke:none;" d="M241.333 284.667C241.278 284.722 241.222 285.778 241.667 285.333C241.722 285.278 241.778 284.222 241.333 284.667z"/>
<path style="fill:#71d1f1; stroke:none;" d="M266.333 284.667C266.278 284.722 266.222 285.778 266.667 285.333C266.722 285.278 266.778 284.222 266.333 284.667z"/>
<path style="fill:#6fcdef; stroke:none;" d="M309.333 284.667C309.278 284.722 309.222 285.778 309.667 285.333C309.722 285.278 309.778 284.222 309.333 284.667z"/>
<path style="fill:#81dbfb; stroke:none;" d="M47 285L48 286L47 285z"/>
<path style="fill:#0191cb; stroke:none;" d="M67 285L66 292C79.5597 294.003 92.892 300.331 106 304.28C135.109 313.049 164.13 322.472 193 332.001C201.978 334.964 211.034 337.681 220 340.667C226.207 342.734 232.448 345.428 239 346C229.336 332.405 206.021 329.669 191 324.667C149.834 310.958 108.261 298.426 67 285z"/>
<path style="fill:#a2d4e8; stroke:none;" d="M111 285L112 286L111 285z"/>
<path style="fill:#6ebee0; stroke:none;" d="M103 286L104 287L103 286z"/>
<path style="fill:#dbeff8; stroke:none;" d="M105 286C106.248 286.685 106.548 286.749 108 287C106.752 286.315 106.452 286.251 105 286z"/>
<path style="fill:#82c6e2; stroke:none;" d="M108 286L109 287L108 286z"/>
<path style="fill:#01abe7; stroke:none;" d="M272 286C276.034 307.413 281.625 327.847 290.012 348C293.839 357.198 299.602 365.662 303 375C308.029 375.216 313.053 376.078 318 377C301.487 350.217 285.545 317.974 283 286L272 286z"/>
<path style="fill:#61c0e2; stroke:none;" d="M370 286L371 287L370 286z"/>
<path style="fill:#6dd5fd; stroke:none;" d="M46 287L47 288L46 287z"/>
<path style="fill:#8fd1e9; stroke:none;" d="M371 288L372 289L371 288z"/>
<path style="fill:#51cafb; stroke:none;" d="M45 289L46 290L45 289z"/>
<path style="fill:#0194d0; stroke:none;" d="M65 290L64 300C79.6932 302.318 95.9357 309.664 111 314.667C140.209 324.367 169.738 333.132 199 342.67C217.069 348.559 236.178 357.231 255 360C243.146 343.311 220.32 340.773 202 334.667C172.458 324.819 142.738 315.267 113 306.025C103.989 303.225 95.0541 300.076 86 297.424C79.0268 295.382 71.3026 293.681 65 290z"/>
<path style="fill:#afdef0; stroke:none;" d="M372 290L373 291L372 290z"/>
<path style="fill:#61c0e2; stroke:none;" d="M372 291L373 292L372 291z"/>
<path style="fill:#aee9fe; stroke:none;" d="M43 292L44 293L43 292z"/>
<path style="fill:#71c5e3; stroke:none;" d="M373 293L374 294L373 293z"/>
<path style="fill:#93dff7; stroke:none;" d="M42 294L43 295L42 294z"/>
<path style="fill:#9fd9ed; stroke:none;" d="M374 295L375 296L374 295z"/>
<path style="fill:#7fdafd; stroke:none;" d="M41 296L42 297L41 296z"/>
<path style="fill:#0197d5; stroke:none;" d="M63 297C62.4992 299.686 62.1174 302.27 62 305C74.361 306.826 87.1374 312.379 99 316.333C118.597 322.866 138.357 328.928 158 335.33C182.955 343.464 208.042 351.196 233 359.33C244.367 363.035 256.145 365.904 267 371C262.486 362.085 253.789 359.927 245 357.28C235.305 354.36 225.614 351.172 216 347.999C179.428 335.929 142.533 324.844 106 312.667C96.3617 309.454 86.6383 306.546 77 303.333C72.059 301.686 66.8205 300.703 63 297z"/>
<path style="fill:#6dd5fd; stroke:none;" d="M40 298L41 299L40 298z"/>
<path style="fill:#61c0e2; stroke:none;" d="M375 298L376 299L375 298z"/>
<path style="fill:#4bcdfe; stroke:none;" d="M39 300L40 301L39 300z"/>
<path style="fill:#8fd1e9; stroke:none;" d="M376 300L377 301L376 300z"/>
<path style="fill:#9fd9ed; stroke:none;" d="M377 302L378 303L377 302z"/>
<path style="fill:#aee9fe; stroke:none;" d="M37 303L38 304L37 303z"/>
<path style="fill:#019ad9; stroke:none;" d="M61 303C60.4379 306.025 60.0636 308.922 60 312C75.922 315.683 91.394 322.125 107 326.975C139.068 336.94 171.141 347.047 203 357.667C215.931 361.977 228.984 365.981 242 370.025C252.607 373.322 261.768 377 273 377C269.751 370.12 262.743 368.582 256 366.333C242.414 361.803 228.761 357.104 215 353.141C181.381 343.461 148.409 331.408 115 321.025C102.992 317.294 90.9335 313.63 79 309.667C73.0043 307.675 66.4732 306.197 61 303z"/>
<path style="fill:#8fdefd; stroke:none;" d="M36 305L37 306L36 305z"/>
<path style="fill:#61c0e2; stroke:none;" d="M378 305L379 306L378 305z"/>
<path style="fill:#7fdafd; stroke:none;" d="M35 307L36 308L35 307z"/>
<path style="fill:#9fd9ed; stroke:none;" d="M379 307L380 308L379 307z"/>
<path style="fill:#5fd3ff; stroke:none;" d="M34 309L35 310L34 309z"/>
<path style="fill:#019ede; stroke:none;" d="M59 309C58.2585 314.502 56.2456 319.616 55 325C69.6202 325.668 85.0873 333.651 99 337.975C129.724 347.522 160.477 357.159 191 367.333C203.497 371.499 217.019 377.511 230 379.674C239.21 381.209 253.103 379.631 262 377C255.444 372.875 246.428 370.998 239 368.859C229.603 366.153 220.34 362.877 211 359.975C178.567 349.896 146.519 338.516 114 328.72C101.628 324.993 89.2699 321.049 77 316.999C70.8354 314.965 63.7177 313.678 59 309z"/>
<path style="fill:#61c0e2; stroke:none;" d="M380 310L381 311L380 310z"/>
<path style="fill:#4bcdfe; stroke:none;" d="M33 311L34 312L33 311z"/>
<path style="fill:#8fd1e9; stroke:none;" d="M381 312L382 313L381 312z"/>
<path style="fill:#aee9fe; stroke:none;" d="M31 314L32 315L31 314z"/>
<path style="fill:#9fd9ed; stroke:none;" d="M382 314L383 315L382 314z"/>
<path style="fill:#71c8ec; stroke:none;" d="M57.3333 315.667C57.2778 315.722 57.2222 316.778 57.6667 316.333C57.7223 316.278 57.7777 315.222 57.3333 315.667z"/>
<path style="fill:#61c0e2; stroke:none;" d="M383 317L384 318L383 317z"/>
<path style="fill:#7fceea; stroke:none;" d="M56.3333 318.667C56.2778 318.722 56.2222 319.778 56.6667 319.333C56.7222 319.278 56.7778 318.222 56.3333 318.667z"/>
<path style="fill:#9fd9ed; stroke:none;" d="M384 319L385 320L384 319z"/>
<path style="fill:#7fceea; stroke:none;" d="M55 322L56 323L55 322z"/>
<path style="fill:#61c0e2; stroke:none;" d="M385 322L386 323L385 322z"/>
<path style="fill:#7fcbe5; stroke:none;" d="M386 324L387 325L386 324z"/>
<path style="fill:#41b9e9; stroke:none;" d="M54.3333 325.667C54.2778 325.722 54.2222 326.778 54.6667 326.333C54.7222 326.278 54.7778 325.222 54.3333 325.667z"/>
<path style="fill:#01a1e3; stroke:none;" d="M51 338C61.8794 340.517 72.3489 344.665 83 347.975C105.706 355.031 128.442 362.147 151 369.667C159.972 372.657 169.028 375.343 178 378.333C183.77 380.257 189.93 382.91 196 383.636C207.528 385.014 220.302 381 232 381C220.456 373.736 203.929 371.31 191 367C158.8 356.267 126.199 346.731 94 336C85.0282 333.01 75.9726 330.307 67 327.333C63.8578 326.292 58.7818 323.825 55.652 326.032C52.518 328.242 51.5966 334.49 51 338z"/>
<path style="fill:#9fd9ed; stroke:none;" d="M387 326L388 327L387 326z"/>
<path style="fill:#8fd4f1; stroke:none;" d="M53 328L54 329L53 328z"/>
<path style="fill:#61c0e2; stroke:none;" d="M388 329L389 330L388 329z"/>
<path style="fill:#51c0ed; stroke:none;" d="M52.3333 331.667C52.2778 331.722 52.2222 332.778 52.6667 332.333C52.7222 332.278 52.7778 331.222 52.3333 331.667z"/>
<path style="fill:#8fd1e9; stroke:none;" d="M389 331L390 332L389 331z"/>
<path style="fill:#afdef0; stroke:none;" d="M390 333L391 334L390 333z"/>
<path style="fill:#afe4f7; stroke:none;" d="M51 334L52 335L51 334z"/>
<path style="fill:#61c0e2; stroke:none;" d="M390 334L391 335L390 334z"/>
<path style="fill:#71c5e3; stroke:none;" d="M391 336L392 337L391 336z"/>
<path style="fill:#afe4f7; stroke:none;" d="M50 337L51 338L50 337z"/>
<path style="fill:#01a6e8; stroke:none;" d="M50 338L47 351C56.6469 351.788 65.8264 356.124 75 358.975C95.0383 365.202 114.962 371.798 135 378.025C144.172 380.876 153.464 385.227 163 386.671C173.258 388.225 184.689 384.443 195 384C189.792 380.818 182.81 379.603 177 377.667C163.735 373.245 150.352 369.124 137 364.975C118.625 359.264 100.293 353.293 82 347.33C71.7272 343.982 60.8146 338.944 50 338z"/>
<path style="fill:#9fd9ed; stroke:none;" d="M392 338L393 339L392 338z"/>
<path style="fill:#afe4f7; stroke:none;" d="M49.3333 339.667C49.2778 339.722 49.2222 340.778 49.6667 340.333C49.7222 340.278 49.7778 339.222 49.3333 339.667z"/>
<path style="fill:#61c0e2; stroke:none;" d="M393 341L394 342L393 341z"/>
<path style="fill:#7fd3f4; stroke:none;" d="M48.3333 343.667C48.2778 343.722 48.2222 344.778 48.6667 344.333C48.7222 344.278 48.7778 343.222 48.3333 343.667z"/>
<path style="fill:#8fd4eb; stroke:none;" d="M394 343L395 344L394 343z"/>
<path style="fill:#9fd9ed; stroke:none;" d="M395 345L396 346L395 345z"/>
<path style="fill:#7fd3f4; stroke:none;" d="M47 347L48 348L47 347z"/>
<path style="fill:#61c0e2; stroke:none;" d="M396 348L397 349L396 348z"/>
<path style="fill:#41bff1; stroke:none;" d="M46.3333 350.667C46.2778 350.722 46.2222 351.778 46.6667 351.333C46.7222 351.278 46.7778 350.222 46.3333 350.667z"/>
<path style="fill:#9fd9ed; stroke:none;" d="M397 350L398 351L397 350z"/>
<path style="fill:#01a9ed; stroke:none;" d="M162 387C153.056 381.536 140.062 379.311 130 376.28C111.256 370.633 92.6122 364.397 74 358.33C67.3787 356.172 60.7896 353.48 54 351.9C51.1032 351.225 47.1243 350.596 45.8009 354.104C44.4387 357.715 48.3747 359.065 51.0046 359.996C57.9336 362.448 65.0302 364.346 72 366.667C86.9376 371.641 101.967 376.354 117 381.025C132.553 385.859 145.52 390.923 162 387z"/>
<path style="fill:#8fd9f6; stroke:none;" d="M45 353L46 354L45 353z"/>
<path style="fill:#61c0e2; stroke:none;" d="M398 353L399 354L398 353z"/>
<path style="fill:#8fd4eb; stroke:none;" d="M399 355L400 356L399 355z"/>
<path style="fill:#51c6f4; stroke:none;" d="M44.3333 356.667C44.2778 356.722 44.2222 357.778 44.6667 357.333C44.7222 357.278 44.7778 356.222 44.3333 356.667z"/>
<path style="fill:#9fd9ed; stroke:none;" d="M400 357L401 358L400 357z"/>
<path style="fill:#01adf1; stroke:none;" d="M44 358C43.1839 360.575 41.5573 364.016 42.6435 366.722C43.6375 369.199 46.7151 369.886 49.0008 370.575C54.7015 372.293 60.3501 374.117 66 376C77.919 379.972 89.9429 383.894 102 387.424C106.249 388.668 110.587 390.797 115 391.312C123.076 392.257 133.043 390.477 141 389C135.558 386.042 128.891 384.629 123 382.667C111.074 378.695 99.0359 374.906 87 371.28C72.9329 367.042 58.543 360.148 44 358z"/>
<path style="fill:#afe4f7; stroke:none;" d="M43 359L44 360L43 359z"/>
<path style="fill:#61c0e2; stroke:none;" d="M401 360L402 361L401 360z"/>
<path style="fill:#afe6fc; stroke:none;" d="M42 362L43 363L42 362z"/>
<path style="fill:#9fd9ed; stroke:none;" d="M402 362L403 363L402 362z"/>
<path style="fill:#afe6fc; stroke:none;" d="M41 365L42 366L41 365z"/>
<path style="fill:#61c0e2; stroke:none;" d="M403 365L404 366L403 365z"/>
<path style="fill:#01b1f5; stroke:none;" d="M41 366C39.2808 377.641 33.6285 388.534 31 400C59.0316 399.421 86.9505 392.232 115 392C109.397 388.474 102.254 387.369 96 385.33C83.6698 381.311 71.3073 377.421 59 373.333C52.695 371.239 46.3969 370.048 41 366z"/>
<path style="fill:#8fd4eb; stroke:none;" d="M404 367L405 368L404 367z"/>
<path style="fill:#7fd7f9; stroke:none;" d="M40.3333 368.667C40.2778 368.722 40.2222 369.778 40.6667 369.333C40.7222 369.278 40.7778 368.222 40.3333 368.667z"/>
<path style="fill:#9fd9ed; stroke:none;" d="M405 369L406 370L405 369z"/>
<path style="fill:#afe7f9; stroke:none;" d="M268 370L269 372C270.635 371.455 270.455 371.635 271 370L268 370z"/>
<path style="fill:#51c9f1; stroke:none;" d="M271 370C272.248 370.685 272.548 370.749 274 371C272.752 370.315 272.452 370.251 271 370z"/>
<path style="fill:#9fe1f7; stroke:none;" d="M276.667 371.333C276.222 371.778 277.278 371.722 277.333 371.667C277.778 371.222 276.722 371.278 276.667 371.333z"/>
<path style="fill:#61ccf1; stroke:none;" d="M278 371C279.248 371.685 279.548 371.749 281 372C279.752 371.315 279.452 371.251 278 371z"/>
<path style="fill:#7fd7f9; stroke:none;" d="M39 372L40 373L39 372z"/>
<path style="fill:#9fd9f0; stroke:none;" d="M270 372L271 373L270 372z"/>
<path style="fill:#afe4f7; stroke:none;" d="M283.667 372.333C283.222 372.778 284.278 372.722 284.333 372.667C284.778 372.222 283.722 372.278 283.667 372.333z"/>
<path style="fill:#61ccf1; stroke:none;" d="M285.667 372.333C285.222 372.778 286.278 372.722 286.333 372.667C286.778 372.222 285.722 372.278 285.667 372.333z"/>
<path style="fill:#61c0e2; stroke:none;" d="M406 372L407 373L406 372z"/>
<path style="fill:#7fcbeb; stroke:none;" d="M271 373L272 374L271 373z"/>
<path style="fill:#9fe1f7; stroke:none;" d="M291 373C292.248 373.685 292.548 373.749 294 374C292.752 373.315 292.452 373.251 291 373z"/>
<path style="fill:#51bbe5; stroke:none;" d="M272 374C273.001 375.924 273.077 376.098 275 377C273.897 375.543 273.457 375.103 272 374z"/>
<path style="fill:#9fdef7; stroke:none;" d="M298.667 374.333C298.222 374.778 299.278 374.722 299.333 374.667C299.778 374.222 298.722 374.278 298.667 374.333z"/>
<path style="fill:#61ccf1; stroke:none;" d="M300 374C301.248 374.685 301.548 374.749 303 375C301.752 374.315 301.452 374.251 300 374z"/>
<path style="fill:#8fd4eb; stroke:none;" d="M407 374L408 375L407 374z"/>
<path style="fill:#7fd7f9; stroke:none;" d="M38 375L39 376L38 375z"/>
<path style="fill:#9fdef4; stroke:none;" d="M305.667 375.333C305.222 375.778 306.278 375.722 306.333 375.667C306.778 375.222 305.722 375.278 305.667 375.333z"/>
<path style="fill:#61ccf1; stroke:none;" d="M307.667 375.333C307.222 375.778 308.278 375.722 308.333 375.667C308.778 375.222 307.722 375.278 307.667 375.333z"/>
<path style="fill:#7fd5f3; stroke:none;" d="M313 376C314.248 376.685 314.548 376.749 316 377C314.752 376.315 314.452 376.251 313 376z"/>
<path style="fill:#afdef0; stroke:none;" d="M408 376L409 377L408 376z"/>
<path style="fill:#31b0e3; stroke:none;" d="M261.667 377.333C261.222 377.778 262.278 377.722 262.333 377.667C262.778 377.222 261.722 377.278 261.667 377.333z"/>
<path style="fill:#71c8ec; stroke:none;" d="M263 377C264.506 377.683 265.315 377.826 267 378C265.494 377.317 264.685 377.174 263 377z"/>
<path style="fill:#cfeefa; stroke:none;" d="M267 377C268.248 377.685 268.548 377.749 270 378C268.752 377.315 268.452 377.251 267 377z"/>
<path style="fill:#9fdef4; stroke:none;" d="M320 377C321.248 377.685 321.548 377.749 323 378C321.752 377.315 321.452 377.251 320 377z"/>
<path style="fill:#61c0e2; stroke:none;" d="M408 377L409 378L408 377z"/>
<path style="fill:#8fdefd; stroke:none;" d="M37 378L38 379L37 378z"/>
<path style="fill:#31b0e3; stroke:none;" d="M251 378C252.248 378.685 252.548 378.749 254 379C252.752 378.315 252.452 378.251 251 378z"/>
<path style="fill:#8fd4f1; stroke:none;" d="M254 378C255.248 378.685 255.548 378.749 257 379C255.752 378.315 255.452 378.251 254 378z"/>
<path style="fill:#cfeefa; stroke:none;" d="M257.667 378.333C257.222 378.778 258.278 378.722 258.333 378.667C258.778 378.222 257.722 378.278 257.667 378.333z"/>
<path style="fill:#9fdef4; stroke:none;" d="M327.667 378.333C327.222 378.778 328.278 378.722 328.333 378.667C328.778 378.222 327.722 378.278 327.667 378.333z"/>
<path style="fill:#61ccf1; stroke:none;" d="M329 378C330.248 378.685 330.548 378.749 332 379C330.752 378.315 330.452 378.251 329 378z"/>
<path style="fill:#51bde9; stroke:none;" d="M241 379C242.248 379.685 242.548 379.749 244 380C242.752 379.315 242.452 379.251 241 379z"/>
<path style="fill:#8fd4f1; stroke:none;" d="M244 379C245.248 379.685 245.548 379.749 247 380C245.752 379.315 245.452 379.251 244 379z"/>
<path style="fill:#cfeefa; stroke:none;" d="M247.667 379.333C247.222 379.778 248.278 379.722 248.333 379.667C248.778 379.222 247.722 379.278 247.667 379.333z"/>
<path style="fill:#9fdef4; stroke:none;" d="M334.667 379.333C334.222 379.778 335.278 379.722 335.333 379.667C335.778 379.222 334.722 379.278 334.667 379.333z"/>
<path style="fill:#61c8ed; stroke:none;" d="M336.667 379.333C336.222 379.778 337.278 379.722 337.333 379.667C337.778 379.222 336.722 379.278 336.667 379.333z"/>
<path style="fill:#71c9e8; stroke:none;" d="M409 379L410 380L409 379z"/>
<path style="fill:#61c4ea; stroke:none;" d="M232 380C233.506 380.683 234.315 380.826 236 381C234.494 380.317 233.685 380.174 232 380z"/>
<path style="fill:#cfeefa; stroke:none;" d="M236 380C237.248 380.685 237.548 380.749 239 381C237.752 380.315 237.452 380.251 236 380z"/>
<path style="fill:#7fd3f4; stroke:none;" d="M342 380C343.248 380.685 343.548 380.749 345 381C343.752 380.315 343.452 380.251 342 380z"/>
<path style="fill:#51cafb; stroke:none;" d="M36.3333 381.667C36.2778 381.722 36.2222 382.778 36.6667 382.333C36.7222 382.278 36.7778 381.222 36.3333 381.667z"/>
<path style="fill:#31b3e7; stroke:none;" d="M220 381C221.248 381.685 221.548 381.749 223 382C221.752 381.315 221.452 381.251 220 381z"/>
<path style="fill:#8fd4f1; stroke:none;" d="M223 381C224.248 381.685 224.548 381.749 226 382C224.752 381.315 224.452 381.251 223 381z"/>
<path style="fill:#9fdef4; stroke:none;" d="M349 381C350.248 381.685 350.548 381.749 352 382C350.752 381.315 350.452 381.251 349 381z"/>
<path style="fill:#31b7e5; stroke:none;" d="M352.667 381.333C352.222 381.778 353.278 381.722 353.333 381.667C353.778 381.222 352.722 381.278 352.667 381.333z"/>
<path style="fill:#9fd9f0; stroke:none;" d="M410 381L411 382L410 381z"/>
<path style="fill:#41b9eb; stroke:none;" d="M210 382C211.248 382.685 211.548 382.749 213 383C211.752 382.315 211.452 382.251 210 382z"/>
<path style="fill:#8fd7f2; stroke:none;" d="M213 382C214.248 382.685 214.548 382.749 216 383C214.752 382.315 214.452 382.251 213 382z"/>
<path style="fill:#cfeefa; stroke:none;" d="M216.667 382.333C216.222 382.778 217.278 382.722 217.333 382.667C217.778 382.222 216.722 382.278 216.667 382.333z"/>
<path style="fill:#9fdef4; stroke:none;" d="M356.667 382.333C356.222 382.778 357.278 382.722 357.333 382.667C357.778 382.222 356.722 382.278 356.667 382.333z"/>
<path style="fill:#61c7ea; stroke:none;" d="M358 382C359.248 382.685 359.548 382.749 361 383C359.752 382.315 359.452 382.251 358 382z"/>
<path style="fill:#51c0ed; stroke:none;" d="M200 383C201.248 383.685 201.548 383.749 203 384C201.752 383.315 201.452 383.251 200 383z"/>
<path style="fill:#8fd7f2; stroke:none;" d="M203 383C204.248 383.685 204.548 383.749 206 384C204.752 383.315 204.452 383.251 203 383z"/>
<path style="fill:#cfeefa; stroke:none;" d="M206.667 383.333C206.222 383.778 207.278 383.722 207.333 383.667C207.778 383.222 206.722 383.278 206.667 383.333z"/>
<path style="fill:#afe4f7; stroke:none;" d="M363.667 383.333C363.222 383.778 364.278 383.722 364.333 383.667C364.778 383.222 363.722 383.278 363.667 383.333z"/>
<path style="fill:#61c7ea; stroke:none;" d="M365.667 383.333C365.222 383.778 366.278 383.722 366.333 383.667C366.778 383.222 365.722 383.278 365.667 383.333z"/>
<path style="fill:#51cafb; stroke:none;" d="M35.3333 384.667C35.2778 384.722 35.2222 385.778 35.6667 385.333C35.7222 385.278 35.7778 384.222 35.3333 384.667z"/>
<path style="fill:#31b5eb; stroke:none;" d="M189.667 384.333C189.222 384.778 190.278 384.722 190.333 384.667C190.778 384.222 189.722 384.278 189.667 384.333z"/>
<path style="fill:#71cdf0; stroke:none;" d="M191 384C192.506 384.683 193.315 384.826 195 385C193.494 384.317 192.685 384.174 191 384z"/>
<path style="fill:#cfeefa; stroke:none;" d="M195 384C196.248 384.685 196.548 384.749 198 385C196.752 384.315 196.452 384.251 195 384z"/>
<path style="fill:#8fd7f2; stroke:none;" d="M371 384C372.248 384.685 372.548 384.749 374 385C372.752 384.315 372.452 384.251 371 384z"/>
<path style="fill:#61c0e2; stroke:none;" d="M411 384L412 385L411 384z"/>
<path style="fill:#71cdf0; stroke:none;" d="M181.667 385.333C181.222 385.778 182.278 385.722 182.333 385.667C182.778 385.222 181.722 385.278 181.667 385.333z"/>
<path style="fill:#9fdef7; stroke:none;" d="M183.667 385.333C183.222 385.778 184.278 385.722 184.333 385.667C184.778 385.222 183.722 385.278 183.667 385.333z"/>
<path style="fill:#cfeefa; stroke:none;" d="M185.667 385.333C185.222 385.778 186.278 385.722 186.333 385.667C186.778 385.222 185.722 385.278 185.667 385.333z"/>
<path style="fill:#9fdbf0; stroke:none;" d="M378 385C379.248 385.685 379.548 385.749 381 386C379.752 385.315 379.451 385.251 378 385z"/>
<path style="fill:#41b9e3; stroke:none;" d="M381.667 385.333C381.222 385.778 382.278 385.722 382.333 385.667C382.778 385.222 381.722 385.278 381.667 385.333z"/>
<path style="fill:#51c3f1; stroke:none;" d="M169 386C170.248 386.685 170.548 386.749 172 387C170.752 386.315 170.452 386.251 169 386z"/>
<path style="fill:#8fd9f6; stroke:none;" d="M172 386C173.248 386.685 173.548 386.749 175 387C173.752 386.315 173.452 386.251 172 386z"/>
<path style="fill:#cfeefa; stroke:none;" d="M175.667 386.333C175.222 386.778 176.278 386.722 176.333 386.667C176.778 386.222 175.722 386.278 175.667 386.333z"/>
<path style="fill:#9fdbf0; stroke:none;" d="M385.667 386.333C385.222 386.778 386.278 386.722 386.333 386.667C386.778 386.222 385.722 386.278 385.667 386.333z"/>
<path style="fill:#61c4e6; stroke:none;" d="M387 386C388.248 386.685 388.548 386.749 390 387C388.752 386.315 388.452 386.251 387 386z"/>
<path style="fill:#8fd4eb; stroke:none;" d="M412 386L413 387L412 386z"/>
<path style="fill:#afe6fc; stroke:none;" d="M34 387L35 388L34 387z"/>
<path style="fill:#61c9f3; stroke:none;" d="M160 387C161.506 387.683 162.315 387.826 164 388C162.494 387.317 161.685 387.174 160 387z"/>
<path style="fill:#afe1f3; stroke:none;" d="M392.667 387.333C392.222 387.778 393.278 387.722 393.333 387.667C393.778 387.222 392.722 387.278 392.667 387.333z"/>
<path style="fill:#61c4e6; stroke:none;" d="M394.667 387.333C394.222 387.778 395.278 387.722 395.333 387.667C395.778 387.222 394.722 387.278 394.667 387.333z"/>
<path style="fill:#31baf1; stroke:none;" d="M148 388C149.248 388.685 149.548 388.749 151 389C149.752 388.315 149.452 388.251 148 388z"/>
<path style="fill:#7fd3f4; stroke:none;" d="M151 388C152.248 388.685 152.548 388.749 154 389C152.752 388.315 152.452 388.251 151 388z"/>
<path style="fill:#cfeefa; stroke:none;" d="M154 388C155.248 388.685 155.548 388.749 157 389C155.752 388.315 155.452 388.251 154 388z"/>
<path style="fill:#8fd4eb; stroke:none;" d="M400 388C401.248 388.685 401.548 388.749 403 389C401.752 388.315 401.452 388.251 400 388z"/>
<path style="fill:#9fdbf0; stroke:none;" d="M413 388L414 389L413 388z"/>
<path style="fill:#31baf1; stroke:none;" d="M138 389C139.248 389.685 139.548 389.749 141 390C139.752 389.315 139.452 389.251 138 389z"/>
<path style="fill:#8fd9f6; stroke:none;" d="M141 389C142.248 389.685 142.548 389.749 144 390C142.752 389.315 142.452 389.251 141 389z"/>
<path style="fill:#cfeefa; stroke:none;" d="M144.667 389.333C144.222 389.778 145.278 389.722 145.333 389.667C145.778 389.222 144.722 389.278 144.667 389.333z"/>
<path style="fill:#9fdbf0; stroke:none;" d="M407 389C408.248 389.685 408.548 389.749 410 390C408.752 389.315 408.451 389.251 407 389z"/>
<path style="fill:#41b5df; stroke:none;" d="M410.667 389.333C410.222 389.778 411.278 389.722 411.333 389.667C411.778 389.222 410.722 389.278 410.667 389.333z"/>
<path style="fill:#aee9fe; stroke:none;" d="M33 390L34 391L33 390z"/>
<path style="fill:#51c6f4; stroke:none;" d="M128 390C129.248 390.685 129.548 390.749 131 391C129.752 390.315 129.452 390.251 128 390z"/>
<path style="fill:#8fdbf9; stroke:none;" d="M131.667 390.333C131.222 390.778 132.278 390.722 132.333 390.667C132.778 390.222 131.722 390.278 131.667 390.333z"/>
<path style="fill:#bfebfb; stroke:none;" d="M133 390C134.248 390.685 134.548 390.749 136 391C134.752 390.315 134.452 390.251 133 390z"/>
<path style="fill:#31bef5; stroke:none;" d="M117 391C118.248 391.685 118.548 391.749 120 392C118.752 391.315 118.452 391.251 117 391z"/>
<path style="fill:#71d1f9; stroke:none;" d="M120 391C121.248 391.685 121.548 391.749 123 392C121.752 391.315 121.452 391.251 120 391z"/>
<path style="fill:#31bef5; stroke:none;" d="M107.667 392.333C107.222 392.778 108.278 392.722 108.333 392.667C108.778 392.222 107.722 392.278 107.667 392.333z"/>
<path style="fill:#8fdbf9; stroke:none;" d="M109 392C110.506 392.683 111.315 392.826 113 393C111.494 392.317 110.685 392.174 109 392z"/>
<path style="fill:#d0f2fe; stroke:none;" d="M113.667 392.333C113.222 392.778 114.278 392.722 114.333 392.667C114.778 392.222 113.722 392.278 113.667 392.333z"/>
<path style="fill:#7fdafd; stroke:none;" d="M32.3333 393.667C32.2778 393.722 32.2222 394.778 32.6667 394.333C32.7222 394.278 32.7778 393.222 32.3333 393.667z"/>
<path style="fill:#51cafb; stroke:none;" d="M97 393C98.2484 393.685 98.5484 393.749 100 394C98.7517 393.315 98.4516 393.251 97 393z"/>
<path style="fill:#8fdefd; stroke:none;" d="M100 393C101.248 393.685 101.548 393.749 103 394C101.752 393.315 101.452 393.251 100 393z"/>
<path style="fill:#d0f2fe; stroke:none;" d="M103.667 393.333C103.222 393.778 104.278 393.722 104.333 393.667C104.778 393.222 103.722 393.278 103.667 393.333z"/>
<path style="fill:#61cffb; stroke:none;" d="M88 394C89.2484 394.685 89.5484 394.749 91 395C89.7517 394.315 89.4516 394.251 88 394z"/>
<path style="fill:#afe6fc; stroke:none;" d="M91.6667 394.333C91.2222 394.778 92.2778 394.722 92.3333 394.667C92.7778 394.222 91.7222 394.278 91.6667 394.333z"/>
<path style="fill:#31c1fa; stroke:none;" d="M76 395C77.2484 395.685 77.5484 395.749 79 396C77.7517 395.315 77.4516 395.251 76 395z"/>
<path style="fill:#7fdafd; stroke:none;" d="M79 395C80.2484 395.685 80.5484 395.749 82 396C80.7517 395.315 80.4516 395.251 79 395z"/>
<path style="fill:#31c1fa; stroke:none;" d="M66 396C67.2484 396.685 67.5484 396.749 69 397C67.7516 396.315 67.4516 396.251 66 396z"/>
<path style="fill:#8fdefd; stroke:none;" d="M69 396C70.2484 396.685 70.5484 396.749 72 397C70.7517 396.315 70.4516 396.251 69 396z"/>
<path style="fill:#d0f2fe; stroke:none;" d="M72.6667 396.333C72.2222 396.778 73.2778 396.722 73.3333 396.667C73.7778 396.222 72.7222 396.278 72.6667 396.333z"/>
<path style="fill:#7fdafd; stroke:none;" d="M31 397L32 398L31 397z"/>
<path style="fill:#71d6fe; stroke:none;" d="M56 397C57.5061 397.683 58.3148 397.826 60 398C58.494 397.317 57.6852 397.174 56 397z"/>
<path style="fill:#9fe3fd; stroke:none;" d="M60.6667 397.333C60.2222 397.778 61.2778 397.722 61.3333 397.667C61.7778 397.222 60.7222 397.278 60.6667 397.333z"/>
<path style="fill:#d0f2fe; stroke:none;" d="M62.6667 397.333C62.2222 397.778 63.2778 397.722 63.3333 397.667C63.7778 397.222 62.7222 397.278 62.6667 397.333z"/>
<path style="fill:#71d6fe; stroke:none;" d="M46 398C47.769 398.779 49.0359 398.912 51 399C49.231 398.221 47.9641 398.088 46 398z"/>
<path style="fill:#d0f2fe; stroke:none;" d="M30 399C30.9802 400.783 30.9076 400.594 33 401C31.8606 399.985 31.3884 399.691 30 399z"/>
<path style="fill:#8fdefd; stroke:none;" d="M37 399C38.5061 399.683 39.3148 399.826 41 400C39.494 399.317 38.6852 399.174 37 399z"/>
</svg>
