<?xml version="1.0" standalone="yes"?>
<svg xmlns="http://www.w3.org/2000/svg" width="495" height="489">
<path style="fill:#dbe1f7; stroke:none;" d="M228 15C222.246 27.3241 212.775 38.8947 209 52L249 52C245.225 38.8947 235.754 27.3241 230 15L228 15z"/>
<path style="fill:#d7dff5; stroke:none;" d="M197 73L261 73C258.703 67.4833 254.757 56.3115 249.61 53.0278C246.99 51.3565 242.954 52.0002 240 52L218 52C215.046 52.0002 211.01 51.3565 208.39 53.0278C203.243 56.3115 199.297 67.4834 197 73M313.667 68.3333C313.222 68.7777 314.278 68.7222 314.333 68.6667C314.778 68.2222 313.722 68.2778 313.667 68.3333z"/>
<path style="fill:#97adeb; stroke:none;" d="M259 144C251.258 146.246 253 154.413 253 161C261.059 154.481 267.143 144.259 273.374 136C283.503 122.575 294.033 109.452 304.127 96C307.905 90.9648 316.48 83.4645 317.108 77C317.366 74.3454 315.829 71.4604 315 69C308.22 72.4429 303.659 81.0451 299.116 87C289.674 99.3746 279.999 111.576 270.626 124C265.979 130.159 259.54 135.956 259 144z"/>
<path style="fill:#d3dbf5; stroke:none;" d="M186 94L272 94C270.389 88.4199 265.971 77.0861 260.787 74.0278C256.96 71.77 250.284 73 246 73L212 73C207.716 73 201.04 71.77 197.213 74.0278C192.029 77.0861 187.611 88.4199 186 94z"/>
<path style="fill:#99adeb; stroke:none;" d="M317 78C302.318 98.4237 286.374 118.003 271.116 138C265.713 145.081 256.332 153.473 253.564 162C252.555 165.109 253 168.774 253 172C259.87 166.407 264.759 157.954 270.21 151C282.141 135.778 293.977 120.44 305.626 105C311.817 96.7938 321.759 88.888 319 78L317 78z"/>
<path style="fill:#9aafeb; stroke:none;" d="M320 85C305.805 104.761 290.279 123.578 275.626 143C270.815 149.376 265.935 155.72 261 162C258.379 165.336 254.893 168.891 253.564 173C251.837 178.343 253 185.425 253 191C259.897 184.236 265.252 175.601 271.21 168C283.658 152.119 295.946 136.085 308.13 120C312.189 114.641 316.314 109.322 320.424 104C322.236 101.653 324.801 99.1033 325.107 96C325.457 92.4494 322.927 88.3879 322 85L320 85z"/>
<path style="fill:#d1d9f5; stroke:none;" d="M178 108L280 108C278.289 103.891 276.04 96.5565 271.671 94.6034C266.055 92.0921 256.096 94 250 94L205 94C199.677 94 191.25 92.4033 186.329 94.6034C181.96 96.5565 179.711 103.891 178 108z"/>
<path style="fill:#9db1eb; stroke:none;" d="M325 97C308.742 118.936 291.678 140.293 275.116 162C268.49 170.683 257.421 180.659 253.728 191C252.023 195.774 253 201.993 253 207C262.086 204.396 269.07 190.243 274.651 183L314.651 131L325.424 117C327.257 114.627 329.801 112.065 330.356 109C331.056 105.141 328.012 100.671 327 97L325 97z"/>
<path style="fill:#cfd7f3; stroke:none;" d="M174 116L257 116C262.789 116 270.235 117.246 275.829 115.682C277.988 115.079 281.626 112.278 280.507 109.603C279.633 107.512 275.748 108.013 273.999 108.001C267.667 107.957 261.333 108 255 108L195 108C185.908 108 177.025 105.562 174 116z"/>
<path style="fill:#9fb3eb; stroke:none;" d="M331 109C316.472 127.023 302.789 145.729 288.576 164C277.652 178.043 265.406 191.896 256 207C261.521 207 270.177 208.581 274.581 204.486C277.737 201.552 277.987 196.808 279.42 193C280.544 190.01 282.49 187.505 284.425 185L323.651 134C329.941 125.837 337.782 119.216 331 109z"/>
<path style="fill:#cdd7f3; stroke:none;" d="M171 121L249 121C257.793 121 271.511 124.114 277 116L197 116C189.405 116 174.467 112.725 171 121z"/>
<path style="fill:#a1b5ed; stroke:none;" d="M334 119C323.312 136.163 309.268 152.081 296.79 168C291.067 175.301 284.142 182.685 280 191L285 191L285 198C289.974 193.273 293.769 187.384 298 182C307.348 170.104 316.417 157.985 325.651 146C329.45 141.07 337.097 134.288 338.226 128C338.758 125.036 336.926 121.744 336 119L334 119z"/>
<path style="fill:#cdd5f3; stroke:none;" d="M168 127L245 127C254.352 127 267.55 130.122 273 121L194 121C185.851 121 170.927 117.466 168 127z"/>
<path style="fill:#cbd5f3; stroke:none;" d="M163 136L240 136C250.98 136 262.718 138.842 268 127L190 127C179.387 127 166.667 123.547 163 136z"/>
<path style="fill:#a3b5ed; stroke:none;" d="M339 128C325.271 143.865 313.156 161.378 300.349 178C295.698 184.036 288.402 190.803 285.738 198C284.591 201.099 285 204.754 285 208C291.299 201.823 296.268 193.986 301.651 187C310.894 175.004 320.253 163.09 329.374 151C334.163 144.652 344.061 136.465 339 128z"/>
<path style="fill:#a4b7ed; stroke:none;" d="M341 133C337.621 141.784 329.788 149.634 324 157C314.13 169.562 304.645 182.427 294.79 195C291.336 199.406 287.42 208.078 282.726 210.972C280.273 212.485 276.753 211.998 274 212C276.332 212.985 278.457 212.981 281 213C266.623 231.113 252.553 249.539 238.626 268C231.807 277.039 223.055 285.851 218 296C221.813 296.314 227.39 299.288 230.961 297.843C234.835 296.276 237.464 291.171 239.884 288C245.504 280.635 251.277 273.385 256.87 266C278.953 236.847 301.229 207.784 323.79 179C329.229 172.06 334.538 165.011 339.884 158C342.297 154.837 346.249 151.21 346.512 147C346.792 142.509 343.426 136.611 341 133z"/>
<path style="fill:#c9d3f3; stroke:none;" d="M155 151L181 151L181 205C182.981 200.28 182 194.08 182 189L182 158C182 151.939 182.871 145.993 176 144L176 140L225 140L225 151L243 151C242.518 146.725 241.363 144.712 237 144L237 140C244.283 140 251.879 139.305 259 141L261 136L192 136L173 136C170.038 136 166.103 135.363 163.329 136.603C158.766 138.643 156.275 146.574 155 151z"/>
<path style="fill:#dde3f7; stroke:none;" d="M176 140C180.72 141.981 186.92 141 192 141L225 141C220.28 139.019 214.08 140 209 140L176 140M237 140C242.959 142.5 251.564 141 258 141C252.041 138.5 243.436 140 237 140z"/>
<path style="fill:#eceffb; stroke:none;" d="M224 141L224 156L219 156C221.052 156.874 222.747 156.953 225 157C225 151.91 225.982 145.724 224 141z"/>
<path style="fill:#c5d1f1; stroke:none;" d="M257.667 143.333C257.222 143.778 258.278 143.722 258.333 143.667C258.778 143.222 257.722 143.278 257.667 143.333z"/>
<path style="fill:#eceffb; stroke:none;" d="M191 145L191 173C193.604 166.793 193.604 151.207 191 145z"/>
<path style="fill:#dbe1f7; stroke:none;" d="M192 145C197.715 147.398 205.831 146 212 146C206.285 143.602 198.169 145 192 145z"/>
<path style="fill:#c7d1f2; stroke:none;" d="M192 146L192 161L243 161L243 151L225 151L225 157L219 157C217.518 142.629 202.792 146 192 146z"/>
<path style="fill:#a7b9ed; stroke:none;" d="M347 148C316.411 185.948 286.982 225.089 257.626 264C251.292 272.396 244.71 280.605 238.374 289C233.726 295.158 229.954 298.301 233 306C237.978 302.508 244.159 298.773 248.536 294.61C260.538 283.194 270.13 267.202 280.13 254C295.878 233.209 312.122 212.791 327.87 192C332.686 185.642 337.527 179.295 342.424 173C348.806 164.796 355.382 157.5 347 148z"/>
<path style="fill:#eceffb; stroke:none;" d="M243 150L243 203C244.661 199.041 244 194.26 244 190L244 165C244 160.191 244.875 154.469 243 150z"/>
<path style="fill:#c4cff1; stroke:none;" d="M137 183L181 183L181 151C173.758 151 161.883 148.702 155.213 151.603C152.05 152.979 150.593 157.196 149 160C144.754 167.471 140.305 175.062 137 183z"/>
<path style="fill:#a9bbed; stroke:none;" d="M352 160C328.676 186.954 308.106 216.763 286.349 245L261.651 277C256.958 283.091 251.434 289.107 248 296C250.73 296.117 253.314 296.499 256 297C264.53 283.302 275.667 270.738 285.576 258C301.577 237.43 317.133 216.511 333.21 196C338.656 189.052 344.08 182.065 349.373 175C353.179 169.92 356.507 165.676 352 160z"/>
<path style="fill:#c5d1f1; stroke:none;" d="M192 161L192 172C196.148 172 201.981 173.043 205.856 171.397C209.865 169.694 210.163 165.771 215 165L215 185C218.124 184.256 222.077 184.506 224.91 182.972C227.696 181.464 229.516 178.457 231.374 176C235.074 171.109 239.257 166.507 242 161L192 161z"/>
<path style="fill:#97adeb; stroke:none;" d="M242 161C234.664 171.205 226.739 181.008 219.116 191C215.192 196.143 210.534 201.005 208 207C210.739 206.85 213.329 206.696 215.348 204.566C219.552 200.133 217.773 194.149 225 193L225 209C230.851 203.267 239.725 193.813 242.411 186C243.85 181.817 243 176.369 243 172C243 168.298 243.441 164.435 242 161z"/>
<path style="fill:#abbbed; stroke:none;" d="M355 167C344.828 178.755 335.838 191.685 326.349 204C310.433 224.656 294.331 245.183 278.626 266C272.795 273.729 266.714 281.27 260.885 289C257.951 292.891 254.88 297.118 261 299C269.53 285.302 280.667 272.738 290.576 260C305.799 240.431 320.845 220.711 335.884 201C341.501 193.639 347.364 186.448 352.866 179C355.797 175.032 358.018 171.45 355 167z"/>
<path style="fill:#adbded; stroke:none;" d="M357 171C354.466 176.995 349.808 181.857 345.884 187L325.884 213C303.7 242.076 280.901 270.713 259 300C262.56 304.414 263.88 308.358 264 314C275.681 303.792 284.763 288.366 294.13 276C310.382 254.544 327.163 233.487 343.374 212C347.929 205.963 352.552 199.958 357.21 194C359.241 191.402 362.223 188.476 362.484 185C362.805 180.707 359.314 174.485 357 171z"/>
<path style="fill:#d5ddf5; stroke:none;" d="M192 172C195.959 173.661 200.737 173 205 173C201.041 171.339 196.263 172 192 172z"/>
<path style="fill:#eceffb; stroke:none;" d="M191 177L191 207C193.395 201.293 192 193.154 192 187C192 183.581 192.328 180.166 191 177z"/>
<path style="fill:#d5ddf5; stroke:none;" d="M192 177C195.959 178.661 200.737 178 205 178C201.041 176.339 196.263 177 192 177z"/>
<path style="fill:#bfcbf1; stroke:none;" d="M192 178L192 207C196.365 207 202.634 208.146 206.7 206.397C209.429 205.222 211.148 202.26 212.884 199.999C216.821 194.875 221.469 189.987 224 184L210 185C208.166 176.018 199.298 178 192 178z"/>
<path style="fill:#efefef; stroke:none;" d="M114 189C112.623 188.089 111.56 187.596 110 187L110 185L114 184C108.806 182.298 108.653 188.108 114 189z"/>
<path style="fill:#bfcbf1; stroke:none;" d="M128 200L181 200L181 183L149 183C145.492 183 139.67 181.911 136.637 184.028C132.59 186.853 129.35 195.411 128 200z"/>
<path style="fill:#d9d9d9; stroke:none;" d="M110 185L110 187L114 188L114 184L110 185z"/>
<path style="fill:#afbfef; stroke:none;" d="M363 186C344.539 207.198 328.167 230.652 311.116 253C300.168 267.348 286.94 281.31 278 297C282.244 296.464 289.02 297.118 292.7 294.972C299.557 290.974 304.938 280.191 309.79 274C323.541 256.456 336.889 238.594 350.576 221C354.702 215.696 358.836 210.374 362.87 205C364.64 202.641 366.988 200.041 367.382 197C367.876 193.19 365.221 188.868 363 186z"/>
<path style="fill:#9aafeb; stroke:none;" d="M242 187C236.067 193.856 226.798 202.964 225 212L214 212C216.613 213.098 219.164 212.993 222 213C211.586 225.035 202.214 238.291 192.626 251C187.409 257.914 177.511 266.603 175.143 275C174.124 278.611 175 283.254 175 287C171.881 287 168.001 286.445 165.174 288.028C158.343 291.853 152.659 302.77 148 309C153.691 313.634 158.937 318.854 165 323C165 317.325 166.672 308.494 164.258 303.274C163.107 300.784 160.371 299.428 159 297C163.054 296.916 169.128 297.076 172.7 294.973C178.998 291.265 183.753 281.686 188.21 276C199.095 262.113 209.592 247.926 220.424 234C225.968 226.873 235.666 218.138 237 209C244.729 206.705 244.694 193.421 242 187z"/>
<path style="fill:#dbe1f7; stroke:none;" d="M279 191L279 194C279.696 192.446 279.696 192.554 279 191z"/>
<path style="fill:#c4cff1; stroke:none;" d="M220 193C221.769 193.779 223.036 193.912 225 194C223.231 193.221 221.964 193.088 220 193z"/>
<path style="fill:#e1e7f9; stroke:none;" d="M219.333 194.667C219.278 194.722 219.222 195.778 219.667 195.333C219.722 195.278 219.778 194.222 219.333 194.667z"/>
<path style="fill:#e5ebfa; stroke:none;" d="M284 196L284 201C284.83 198.97 284.83 198.03 284 196z"/>
<path style="fill:#d5ddf5; stroke:none;" d="M218.333 197.667C218.278 197.722 218.222 198.778 218.667 198.333C218.722 198.278 218.778 197.222 218.333 197.667z"/>
<path style="fill:#b1c1ef; stroke:none;" d="M367 198C361.081 207.505 353.483 216.133 346.651 225C335.111 239.977 323.585 254.968 312.116 270C303.922 280.739 292.61 290.833 292 305C305.934 298.619 314.01 287.737 323.21 276C334.113 262.09 344.724 247.95 355.576 234C359.702 228.696 363.835 223.374 367.87 218C369.834 215.383 372.469 212.454 372.559 209C372.655 205.345 370.16 201.408 369 198L367 198z"/>
<path style="fill:#bdcbf1; stroke:none;" d="M121 212L176 212C178.508 207.416 180.933 205.627 181 200L143 200C138.771 200 131.269 198.568 127.61 201.028C124.294 203.257 122.479 208.466 121 212z"/>
<path style="fill:#b3c3ef; stroke:none;" d="M284 201L284 211C285.346 207.793 285.346 204.207 284 201z"/>
<path style="fill:#b5c5f1; stroke:none;" d="M224 202L224 212C225.346 208.793 225.346 205.207 224 202z"/>
<path style="fill:#e7ebf9; stroke:none;" d="M192 207C197.469 209.295 205.099 208 211 208C205.531 205.705 197.901 207 192 207z"/>
<path style="fill:#edf1fb; stroke:none;" d="M253 207C257.724 208.982 263.91 208 269 208C264.276 206.018 258.09 207 253 207z"/>
<path style="fill:#b3c3ef; stroke:none;" d="M373 210C358.324 230.431 342.375 250.001 327.116 270C320.735 278.363 312.698 286.569 308 296L318 298C331.363 276.614 349.084 256.914 364.576 237C370.879 228.897 381.152 220.102 373 210z"/>
<path style="fill:#e3e3e3; stroke:none;" d="M53 211L53 213L56 213L56 211L53 211z"/>
<path style="fill:#b9c7ef; stroke:none;" d="M112 229L166 229C172.704 229 183.497 231.064 189.7 228.397C195.19 226.036 200.146 217.009 203 212L144 212C137.961 212 126.61 209.826 121.329 213.028C116.777 215.788 113.746 224.202 112 229z"/>
<path style="fill:#97adeb; stroke:none;" d="M148 308C153.962 304.497 162.509 293.697 164.487 287C165.501 283.567 165 279.543 165 276C167.532 275.998 170.507 276.352 172.91 275.397C178.632 273.122 182.788 264.675 186.424 260C198.361 244.655 211.72 229.507 222 213C216.404 212.954 208.313 210.15 203.174 213.028C196.834 216.578 191.976 226.343 187.576 232C178.022 244.281 168.554 256.631 159.116 269C155.166 274.176 148.827 279.732 146.742 286C145.521 289.672 147.181 293.362 147.7 297C148.216 300.62 148 304.353 148 308z"/>
<path style="fill:#9fb3eb; stroke:none;" d="M237 212C241.217 213.769 246.459 213 251 213C235.571 232.439 220.814 252.412 205.576 272C196.188 284.068 185.311 296.002 177.26 309C174.097 314.107 173.248 326.503 176.028 331.996C177.547 334.999 180.481 337.15 183 339.266C184.749 340.736 186.67 342.755 188.995 343.249C195.743 344.682 195 334.946 195 331C195 323.351 197.311 311.223 194.397 304.108C193.147 301.057 189.677 299.789 188 297C192.53 296.805 200.661 297.283 204.561 294.972C207.848 293.024 210.126 288.98 212.374 286C216.422 280.635 220.549 275.324 224.651 270C239.057 251.304 255.523 233.035 268 213L237 212z"/>
<path style="fill:#a3b5ed; stroke:none;" d="M252 212C256.724 213.982 262.91 213 268 213C251.284 232.318 236.298 253.632 220.87 274C213.402 283.86 204.009 292.076 204 305C208.698 301.791 214.437 298.526 218.536 294.61C230.837 282.863 240.569 266.52 250.884 253C260.837 239.955 272.875 227.261 281 213L252 212z"/>
<path style="fill:#9db1eb; stroke:none;" d="M173 295C175.874 300.167 175 306.252 175 312C188.851 298.417 199.804 280.375 211.651 265C224.634 248.15 240.471 231.48 251 213C246.764 213 241.081 212.021 237.09 213.603C233.522 215.018 231.116 219.076 228.884 222C224.302 228.003 219.659 233.959 215.127 240C201.274 258.461 186.472 276.26 173 295z"/>
<path style="fill:#b7c5ef; stroke:none;" d="M377 219C372.485 226.848 366.173 233.833 360.651 241C350.898 253.658 341.236 266.387 331.424 279L322.211 291C320.686 292.967 318.369 295.343 318.315 297.998C318.261 300.624 320.57 303.014 322 305C342.447 294.452 354.216 274.914 367.884 257C372.475 250.983 380.97 243.419 382.961 236C384.304 230.992 379.717 223.043 377 219M106 240L158 240C164.657 240 174.676 241.869 180.91 239.397C185.072 237.747 187.88 232.685 190 229L135 229C128.774 229 118.073 226.931 112.39 229.603C108.969 231.212 107.198 236.707 106 240z"/>
<path style="fill:#b9c7ef; stroke:none;" d="M384 235C373.827 247.819 364.044 260.988 354.116 274C348.694 281.107 342.071 288.026 338 296C341.69 296.38 347.31 300.32 350.7 298.84C355.798 296.614 360.571 287.356 363.87 283C369.455 275.627 375.084 268.279 380.79 261C383.487 257.559 387.677 253.453 388.477 249C389.265 244.614 386.282 238.61 384 235z"/>
<path style="fill:#b3c3ef; stroke:none;" d="M96 258L147 258C152.898 258 162.603 259.836 167.91 256.972C173.242 254.095 178.697 245.44 181 240L126 240C120.791 240 110.044 237.957 105.637 241.028C101.161 244.148 98.0458 253.088 96 258z"/>
<path style="fill:#bdc9f1; stroke:none;" d="M389 248C383.585 258.872 374.237 268.363 366.884 278C361.342 285.264 356.094 294.225 349 300C351.138 304.575 352.587 308.948 353 314C364.645 304.52 373.354 288.854 382.576 277C386.067 272.512 392.323 266.68 393.524 261C394.434 256.695 391.502 251.306 389 248z"/>
<path style="fill:#b1c1ef; stroke:none;" d="M80 287L90 287C91.7984 279.155 94.7679 271.713 97 264C103.012 265.777 109.761 265 116 265L149 265C157.531 265 162.861 265.677 168 258L117 258C111.326 258 101.224 256.071 96.213 259.028C93.3986 260.688 92.1728 264.27 90.6914 267C87.102 273.613 82.9777 280.09 80 287z"/>
<path style="fill:#bfcbf1; stroke:none;" d="M394 260C386.686 274.327 373.877 287.207 364.116 300C360.626 304.573 355.364 309.433 353.564 315C351.748 320.616 353 328.136 353 334C358.225 330.93 361.763 324.787 365.374 320C372.462 310.606 379.746 301.356 386.884 292C390.744 286.941 397.134 281.172 399.052 275C400.498 270.349 396.729 263.605 394 260z"/>
<path style="fill:#95abeb; stroke:none;" d="M97 264C87.6256 287.684 81.3567 312.818 73.3333 337C70.5554 345.373 68.9397 356.287 64.4421 363.852C60.2157 370.961 44.9511 365.415 38.1049 367.318C33.2284 368.674 30.5626 376.706 29 381L59 381C53.939 402.876 45.9197 424.676 38.9105 446C34.8565 458.333 28.9005 471.131 27 484C31.0464 481.228 31.5263 475.467 33.0008 471C36.405 460.686 39.566 450.302 43 440C56.9448 398.166 69.4351 355.848 83.3333 314C87.0892 302.691 90.5684 291.306 94.3333 280C95.9537 275.134 98.9576 269.017 97 264z"/>
<path style="fill:#97adeb; stroke:none;" d="M98 265C95.5859 282.913 86.9267 300.716 81.7199 318C70.6255 354.828 58.3625 391.361 46.6559 428C40.7342 446.534 33.35 465.025 29 484C34.7154 483.055 35.4216 477.991 36.8588 473C39.7636 462.912 43.4738 453.076 46.4244 443C59.2012 399.367 74.5321 356.42 88.0255 313C91.4517 301.975 95.0161 290.952 98.6667 280C100.572 274.284 103.267 269.431 98 265z"/>
<path style="fill:#afbfef; stroke:none;" d="M99 265C102.735 269.884 107.975 273.348 112 278C124.807 273.068 139.371 274.472 145 289C150.515 281.145 157.725 273.581 162 265L99 265z"/>
<path style="fill:#99adeb; stroke:none;" d="M102 269C87.5957 313.268 74.0408 357.835 59.3333 402C54.026 417.937 49.263 434.052 43.9992 450C40.461 460.72 35.6531 471.806 34 483L39 483C43.2674 464.385 50.4146 446.15 56.3302 428C68.0152 392.15 80.4266 356.231 90.8588 320C94.4311 307.593 98.5838 295.249 102.667 283C104.341 277.978 107.705 272.177 102 269z"/>
<path style="fill:#9aafeb; stroke:none;" d="M106 272C91.7042 315.935 78.2276 360.156 63.6667 404C58.1504 420.61 52.9817 437.331 47.6559 454C44.6145 463.519 40.4599 473.077 39 483C48.2141 482.777 48.7783 476.665 51.3333 469C55.2099 457.37 58.9245 445.678 62.6559 434C73.7326 399.332 85.1737 364.756 95.9745 330C98.0289 323.389 101.502 315.931 101.892 309C102.214 303.283 99.9972 297.709 101.638 292C103.519 285.456 109.182 281.818 112 276L106 272z"/>
<path style="fill:#c1cdf1; stroke:none;" d="M400 274C393.468 282.231 387.273 290.73 380.79 299C376.372 304.636 372.022 310.327 367.651 316C363.32 321.621 355.733 328.504 353.514 335.285C352.428 338.604 353.494 344.002 357.98 343.534C363.633 342.944 369.248 332.143 372.374 328C379.714 318.272 387.213 308.653 394.651 299C397.677 295.074 403.322 290.083 404.11 285C404.697 281.22 402.111 276.92 400 274z"/>
<path style="fill:#cdd7f3; stroke:none;" d="M165 276C168.163 277.327 171.586 277 175 277C171.837 275.673 168.414 276 165 276z"/>
<path style="fill:#f1f5fd; stroke:none;" d="M174 277L174 286L165 286C168.163 287.327 171.586 287 175 287C175 283.586 175.327 280.163 174 277z"/>
<path style="fill:#cbd5f3; stroke:none;" d="M121 279C123.052 279.874 124.747 279.953 127 280C124.948 279.126 123.253 279.047 121 279z"/>
<path style="fill:#abbbed; stroke:none;" d="M117 281C122.584 287.455 130.075 294.646 138 298C137.141 294.402 137.224 290.425 135.772 287.004C132.497 279.291 124.097 278.902 117 281z"/>
<path style="fill:#a1b5ed; stroke:none;" d="M116.105 283.256C110.602 285.199 110.902 293.401 111.015 298C111.308 309.935 119.61 315.862 130.995 311.437C132.279 310.938 133.719 310.327 134.721 309.348C143.575 300.708 131.923 294.081 126 288.833C123.548 286.661 119.91 281.913 116.105 283.256z"/>
<path style="fill:#c3cdf1; stroke:none;" d="M358 347L338 347C343.222 349.191 350.368 348 356 348C347.452 359.9 338.291 371.394 329.349 383L299.349 422C297.987 423.767 288.571 434.061 295.062 435.079C298.127 435.559 300.653 430.97 302.21 428.999C307.423 422.398 312.56 415.715 317.626 409C339.138 380.486 361.217 352.397 382.884 324C388.251 316.967 393.75 310.034 399.116 303C403.404 297.379 407.276 293.333 406 286C399.845 289.126 395.723 296.569 391.626 302C384.034 312.062 376.315 322.051 368.576 332C364.997 336.601 359.743 341.409 358 347z"/>
<path style="fill:#a3b5ed; stroke:none;" d="M54 336C58.8511 336 69.2979 337.986 73.2971 334.972C76.2523 332.745 76.9908 326.346 78.1397 323C82.0889 311.498 87.375 299.057 89 287C85.9265 287.002 82.1281 286.465 79.6096 288.603C75.8522 291.793 73.9479 297.792 71.5756 302C65.5636 312.665 57.3949 324.216 54 336z"/>
<path style="fill:#d5dff7; stroke:none;" d="M101.333 291.667C101.278 291.722 101.222 292.778 101.667 292.333C101.722 292.278 101.778 291.222 101.333 291.667z"/>
<path style="fill:#dde5f7; stroke:none;" d="M146.333 291.667C146.278 291.722 146.222 292.778 146.667 292.333C146.722 292.278 146.778 291.222 146.333 291.667z"/>
<path style="fill:#c4cff1; stroke:none;" d="M407 291C399.98 302.273 390.935 312.448 382.884 323C366.815 344.061 350.69 365.09 334.424 386C326.174 396.606 318.035 407.317 309.884 418C305.258 424.064 300.93 431.172 295 436C297.139 438.795 300.876 443.421 304.826 443.368C307.976 443.326 310.298 439.15 312 436.999C317.474 430.082 322.803 423.032 328.13 416C350.228 386.826 372.915 358.096 395.116 329C399.191 323.659 403.346 318.377 407.373 313C409.157 310.619 411.653 308.011 412.251 305C413.117 300.636 409.534 294.348 407 291z"/>
<path style="fill:#c1cdf1; stroke:none;" d="M137 292L137 297C137.83 294.969 137.83 294.03 137 292z"/>
<path style="fill:#dbe1f7; stroke:none;" d="M110 293L110 301C111.161 298.23 111.161 295.77 110 293z"/>
<path style="fill:#dbe3f8; stroke:none;" d="M147 295L147 300C147.83 297.969 147.83 297.03 147 295z"/>
<path style="fill:#d1dbf6; stroke:none;" d="M165 296C167.89 297.213 170.874 296.998 174 297C171.11 295.787 168.126 296.002 165 296z"/>
<path style="fill:#bac9f1; stroke:none;" d="M174 296L174 331C175.441 327.565 175 323.702 175 320C175 312.784 176.802 302.678 174 296M193 296C196.432 297.44 200.3 297 204 297C200.568 295.56 196.7 296 193 296z"/>
<path style="fill:#e5ebfa; stroke:none;" d="M216 296C218.332 296.985 220.457 296.981 223 297C220.668 296.015 218.543 296.019 216 296z"/>
<path style="fill:#e8edfb; stroke:none;" d="M246 296C248.613 297.098 251.164 296.993 254 297C251.387 295.902 248.835 296.007 246 296z"/>
<path style="fill:#c5d1f1; stroke:none;" d="M281 296C284.697 297.552 289.017 297 293 297C289.303 295.448 284.983 296 281 296z"/>
<path style="fill:#eff3fd; stroke:none;" d="M335 296C337.613 297.098 340.164 296.993 343 297C340.387 295.902 337.836 296.007 335 296z"/>
<path style="fill:#cdd7f3; stroke:none;" d="M188 297L188 300C188.696 298.446 188.696 298.554 188 297z"/>
<path style="fill:#b1c1ef; stroke:none;" d="M276 298C272.794 303.147 268.024 307.595 265.314 313C262.234 319.143 263.331 331.241 264.109 337.985C264.46 341.029 266.292 344.331 269.925 343.288C273.435 342.281 275.838 337.735 277.873 335C283.472 327.473 283.001 321.021 283 312C283 309.096 283.661 305.052 281.976 302.495C280.675 300.521 277.919 299.302 276 298z"/>
<path style="fill:#dbe1f7; stroke:none;" d="M203 300L203 305C203.83 302.969 203.83 302.031 203 300z"/>
<path style="fill:#d7dff5; stroke:none;" d="M213 302C214.769 302.779 216.036 302.912 218 303C216.231 302.221 214.964 302.088 213 302z"/>
<path style="fill:#d5ddf5; stroke:none;" d="M243 302C244.769 302.779 246.036 302.912 248 303C246.231 302.221 244.964 302.088 243 302z"/>
<path style="fill:#e1e7f9; stroke:none;" d="M302 302C303.769 302.779 305.036 302.912 307 303C305.231 302.221 303.964 302.088 302 302z"/>
<path style="fill:#dde5f7; stroke:none;" d="M332 302C333.769 302.779 335.036 302.912 337 303C335.231 302.221 333.964 302.088 332 302z"/>
<path style="fill:#dbe3f8; stroke:none;" d="M111.333 303.667C111.278 303.722 111.222 304.778 111.667 304.333C111.722 304.278 111.778 303.222 111.333 303.667z"/>
<path style="fill:#a9bbed; stroke:none;" d="M210 347L193 347C196.23 351.389 200.679 355.037 205 358.366C206.638 359.628 208.669 361.397 210.91 361.083C215.516 360.437 220.095 351.732 222 348C219.965 346.774 219.674 346.297 219 344C224.091 342.455 223.99 338.809 224 334C224.014 327.334 224.045 320.666 223.999 314C223.975 310.501 223.935 306.908 220.852 304.603C214.695 300.001 206.2 305.544 204.434 312C202.86 317.752 203.998 325.067 204 331C204.001 333.889 203.638 337.206 204.742 339.946C205.855 342.711 208.534 344.452 210 347z"/>
<path style="fill:#adbded; stroke:none;" d="M241.039 303.938C230.561 308.672 233.83 325.69 234.005 335C234.073 338.633 235.537 345.376 240.83 343.628C243.615 342.709 245.656 339.192 247.349 337C253.415 329.145 254.066 323.672 253.999 314C253.948 306.591 249.181 300.26 241.039 303.938z"/>
<path style="fill:#b5c3ef; stroke:none;" d="M294 342C299.002 337.929 302.623 332.084 306.576 327C308.917 323.989 311.836 320.818 312.697 317C313.756 312.303 313.038 305.591 307.956 303.603C302.574 301.499 296.03 304.921 293.858 310.039C292.567 313.081 293 316.775 293 320C293 327.131 291.97 335.132 294 342z"/>
<path style="fill:#bdcbf1; stroke:none;" d="M328 347L308 347C313.469 349.295 321.099 348 327 348C315.507 363.987 303.166 379.517 291 395C285.299 402.256 280.173 411.161 273 417C280.928 425.944 288.814 409.885 293.349 404C305.402 388.356 317.299 372.588 329.424 357C332.141 353.507 334.507 349.782 337.17 346.274C340.142 342.359 342.813 341.441 342.985 335.999C343.205 329.023 343.082 321.98 342.996 315C342.955 311.684 342.902 307.904 340.486 305.318C335.254 299.715 325.214 304.576 323.434 311.004C321.687 317.312 323 325.484 323 332C323 334.813 322.542 338.199 323.599 340.871C324.518 343.196 326.765 344.84 328 347z"/>
<path style="fill:#cdd7f3; stroke:none;" d="M283 304L283 340C284.441 336.565 284 332.702 284 329C284 321.52 285.903 310.919 283 304z"/>
<path style="fill:#dbe1f7; stroke:none;" d="M137.333 305.667C137.278 305.722 137.222 306.778 137.667 306.333C137.722 306.278 137.778 305.222 137.333 305.667z"/>
<path style="fill:#e1e7f9; stroke:none;" d="M165 305L165 338C166.328 334.834 166 331.419 166 328C166 321.049 167.701 311.436 165 305z"/>
<path style="fill:#c5d1f1; stroke:none;" d="M413 305C402.828 316.755 393.838 329.685 384.349 342C368.942 361.996 353.371 381.878 338.13 402C331.024 411.381 323.713 420.606 316.626 430C312.986 434.824 309.382 441.1 304 444C308.378 448.778 311.254 445.224 314.576 440.999C320.284 433.739 325.754 426.29 331.424 419C353.121 391.109 374.681 363.093 396.116 335L409.883 317C412.871 313.047 415.778 309.771 413 305z"/>
<path style="fill:#e5ebfa; stroke:none;" d="M147 306L147 312C147.951 309.715 147.951 308.285 147 306z"/>
<path style="fill:#9db1eb; stroke:none;" d="M102 307C101.455 313.238 98.8638 319.017 97.1412 325C93.082 339.098 88.3022 353.08 83.6667 367C70.9932 405.057 57.95 443.413 47 482C49.5095 481.998 53.1558 482.58 55.2978 480.972C58.1412 478.838 58.9328 473.216 59.8588 470C62.2842 461.577 65.374 453.368 67.9745 445C77.9401 412.932 88.0469 380.859 98.6667 349C101.101 341.696 103.232 334.305 105.667 327C106.656 324.032 108.676 320.197 108.075 317C107.419 313.513 104.028 309.873 102 307z"/>
<path style="fill:#dfe5f9; stroke:none;" d="M263 307L263 339C265.599 332.806 264 323.686 264 317C264 313.581 264.328 310.166 263 307z"/>
<path style="fill:#a9bbed; stroke:none;" d="M148 309C146.834 315.259 145.719 321.119 143.123 327C140.983 331.849 137.68 335.908 136.029 341C126.643 369.947 117.761 399.066 108.33 428C103.089 444.08 95.2608 461.224 93 478C98.681 476.771 99.332 472.004 101 467C104.324 457.028 107.343 446.971 110.667 437C119.963 409.11 128.708 381.006 137.656 353C141.944 339.578 144.592 323.024 152 311L148 309z"/>
<path style="fill:#d5ddf5; stroke:none;" d="M352 309L352 340C354.497 334.049 353 325.42 353 319C353 315.581 353.328 312.166 352 309z"/>
<path style="fill:#bac9f1; stroke:none;" d="M224 310L224 339C226.292 333.538 225 325.887 225 320C225 316.581 225.328 313.166 224 310z"/>
<path style="fill:#c9d5f3; stroke:none;" d="M254 310L254 339C256.292 333.538 255 325.887 255 320C255 316.581 255.328 313.166 254 310z"/>
<path style="fill:#c7d1f2; stroke:none;" d="M415 310C393.256 333.678 374.974 361.529 355.349 387L325.349 426C319.827 433.167 313.515 440.152 309 448C312.782 448.78 317.914 450.968 321.7 449.393C324.743 448.127 326.836 444.487 328.79 442C333.203 436.381 337.557 430.695 341.87 425C361.169 399.522 380.841 374.318 400.349 349C404.96 343.015 409.576 337.029 414.13 331C416.126 328.357 419.107 325.445 419.501 322C419.953 318.042 417.293 313.033 415 310z"/>
<path style="fill:#dbe3f8; stroke:none;" d="M127.667 312.333C127.222 312.778 128.278 312.722 128.333 312.667C128.778 312.222 127.722 312.278 127.667 312.333z"/>
<path style="fill:#abbbed; stroke:none;" d="M150 312C147.403 323.226 143.039 333.982 139.72 345C131.147 373.458 121.702 401.688 112.656 430C107.805 445.184 100.328 461.238 98 477L102 477C104.986 464.095 110.047 451.639 113.975 439C121.346 415.281 128.837 391.574 136.667 368C140.193 357.383 143.654 346.686 146.975 336C149.275 328.597 150.898 320.659 155 314C153.144 312.952 152.056 312.487 150 312z"/>
<path style="fill:#dbe1f7; stroke:none;" d="M313 312L313 338C315.477 332.097 315.477 317.903 313 312z"/>
<path style="fill:#e1e7f9; stroke:none;" d="M322 312L322 338C324.477 332.097 324.477 317.903 322 312z"/>
<path style="fill:#e3e9f9; stroke:none;" d="M343 312L343 338C345.477 332.097 345.477 317.903 343 312z"/>
<path style="fill:#a1b5ed; stroke:none;" d="M136 313C132.531 315.182 128.932 316.888 125.001 318.1C122.761 318.79 119.763 318.765 118.086 320.603C115.397 323.549 114.57 329.291 113.333 333C109.899 343.304 106.757 353.691 103.333 364C95.6151 387.24 88.7444 410.767 81 434C76.0908 448.728 69.0748 464.605 67 480C71.079 478.571 71.4162 474.84 72.6698 471C75.2778 463.011 77.7876 455.002 80.3441 447C87.3796 424.981 94.381 402.937 101.667 381C105.753 368.694 111.964 355.038 112 342C124.251 341.965 132.463 334.883 135.522 323C136.388 319.633 137.278 316.273 136 313z"/>
<path style="fill:#eff3fd; stroke:none;" d="M233 313L233 339C235.477 333.097 235.477 318.903 233 313z"/>
<path style="fill:#e8edfb; stroke:none;" d="M292 313L292 337C294.349 331.403 294.349 318.597 292 313z"/>
<path style="fill:#adbded; stroke:none;" d="M153 315C149.864 328.554 144.577 341.753 140.344 355C131.51 382.649 122.588 410.282 113.975 438C110.012 450.751 103.954 463.765 102 477C104.631 476.665 108.276 476.618 110.49 474.987C113.247 472.955 113.986 468.069 114.999 465C117.85 456.362 120.51 447.652 123.33 439C131.898 412.714 140.241 386.338 148.656 360C152.634 347.549 155.1 332.113 162 321C159.443 317.87 156.926 316.021 153 315z"/>
<path style="fill:#9fb3eb; stroke:none;" d="M109 317C101.553 333.801 97.2468 352.502 91.6559 370C79.8285 407.017 68.0238 444.048 56 481C58.3305 480.972 61.177 481.295 62.9144 479.397C65.454 476.622 65.9438 471.481 67.0255 468C69.622 459.645 72.4289 451.355 75.0255 443C87.9105 401.538 101.565 360.288 115 319C112.979 318.119 111.146 317.504 109 317z"/>
<path style="fill:#c9d3f3; stroke:none;" d="M146.333 317.667C146.278 317.722 146.222 318.778 146.667 318.333C146.722 318.278 146.778 317.222 146.333 317.667z"/>
<path style="fill:#e3e9f9; stroke:none;" d="M114 318C117.432 319.44 121.3 319 125 319C121.568 317.56 117.7 318 114 318z"/>
<path style="fill:#d1d9f5; stroke:none;" d="M136 318L136 321C136.696 319.446 136.696 319.554 136 318z"/>
<path style="fill:#a1b3ed; stroke:none;" d="M63 481C68.0438 478.716 68.3839 473.899 70.0008 469C73.0743 459.688 75.9007 450.3 79 441C87.1888 416.429 94.6447 391.621 102.67 367C107.824 351.187 114.253 335.196 118 319C113.123 320.579 112.495 325.514 111 330C107.899 339.304 105.101 348.694 102 358C94.4795 380.566 87.701 403.386 80.3302 426C74.4175 444.141 67.3018 462.405 63 481z"/>
<path style="fill:#b9c7ef; stroke:none;" d="M312 319C305.824 326.781 299.254 334.563 294 343C296.513 344.037 297.617 344.683 299 347L278 347C283.469 349.295 291.099 348 297 348C288.439 359.909 279.258 371.457 270.21 383C265.422 389.108 261.202 396.254 255 401C257.201 403.988 261.466 409.343 265.829 408.252C271.175 406.916 276 397.095 279.21 393C285.955 384.395 292.465 375.605 299.21 367C303.958 360.942 309.497 354.862 313 348L308 348C308.91 345.045 311.276 343.558 312.401 340.791C314.428 335.807 314.045 323.874 312 319z"/>
<path style="fill:#afbfef; stroke:none;" d="M161 321C154.827 334.943 151.492 350.525 146.667 365C134.378 401.867 123.024 439.046 111 476C113.462 475.978 116.425 476.259 118.581 474.821C121.314 472.999 122.013 468.934 122.859 466C124.607 459.94 126.673 453.982 128.667 448C138.733 417.802 147.85 387.278 157.67 357C158.727 353.739 159.254 350.345 160.274 347.104C161.066 344.587 163.264 343.158 164.262 340.791C166.523 335.433 166.335 323.942 161 321z"/>
<path style="fill:#c9d3f3; stroke:none;" d="M420 321C414.697 332.901 403.598 343.687 395.651 354C380.003 374.308 364.606 394.822 348.79 415C342.826 422.609 336.98 430.314 331.116 438C327.94 442.162 324.337 445.859 323 451C327.434 451.037 333.802 453.203 337.826 450.971C340.855 449.292 342.841 445.677 344.884 443C349.225 437.314 353.58 431.625 358 426C374.871 404.529 391.321 382.708 407.884 361C411.966 355.65 416.065 350.301 420.21 345C422.25 342.39 425.201 339.483 425.487 336C425.855 331.511 422.347 324.712 420 321z"/>
<path style="fill:#afbfef; stroke:none;" d="M253 328C249.628 333.415 243.902 343.888 237.826 346.397C232.679 348.522 224.518 347 219 347C220.248 347.685 220.549 347.749 222 348C218.364 352.905 214.86 358.272 210 362C213.673 366.555 218.455 370.419 223 374.11C224.598 375.408 226.559 377.382 228.826 377.079C231.907 376.666 234.196 372.208 235.884 370C241.312 362.901 247.931 355.971 252 348C249.965 346.774 249.674 346.297 249 344C255.279 342.094 255.233 333.32 253 328z"/>
<path style="fill:#b3c3ef; stroke:none;" d="M282 328C278.11 334.246 271.874 339.789 270 347L249 347C254.222 349.191 261.368 348 267 348C259.905 357.869 252.206 367.309 244.87 377C242.551 380.065 237.221 384.796 240.427 388.833C245.115 394.736 250.417 385.286 253 382C258.711 374.733 264.278 367.348 269.884 360C273.862 354.786 277.784 350.808 278 344C284.279 342.094 284.233 333.32 282 328z"/>
<path style="fill:#d1dbf6; stroke:none;" d="M174 331L174 340C175.256 337.006 175.256 333.994 174 331z"/>
<path style="fill:#b7c5ef; stroke:none;" d="M175 332C175.001 339.032 176.714 341.254 180 347L176 347C177.248 347.685 177.549 347.749 179 348L139 473C141.537 472.97 144.448 473.213 146.49 471.397C148.95 469.208 149.672 464.995 150.667 462C153.093 454.696 155.232 447.305 157.667 440C165.189 417.435 171.837 394.573 179.333 372C181.542 365.35 183.933 358.738 185.859 352C186.557 349.557 187.859 346.576 187.212 344.004C185.967 339.054 178.951 334.75 175 332z"/>
<path style="fill:#9aafeb; stroke:none;" d="M37 367L55 367C57.5084 366.999 61.1501 367.583 63.2978 365.972C65.7723 364.116 66.3407 359.776 67.1412 357C69.1773 349.938 71.7256 342.992 74 336C68.3148 336 59.4721 334.316 54.213 336.603C51.3078 337.867 50.0347 341.424 48.5756 344C44.4386 351.303 39.3313 358.908 37 367z"/>
<path style="fill:#cbd5f3; stroke:none;" d="M426 336C418.326 348.282 408.32 359.564 399.424 371C386.276 387.902 373.419 405.037 360.349 422C352.831 431.757 344.105 441.285 338 452C341.159 452.586 344.824 453.59 347.961 452.396C354.86 449.769 360.383 438.622 364.79 433C381.653 411.487 397.928 389.513 414.79 368C422.423 358.262 434.392 348.493 426 336z"/>
<path style="fill:#a7b9ed; stroke:none;" d="M136 338L130 342C130.042 347.128 127.606 352.18 126 357C123.344 364.969 120.991 373.028 118.333 381C111.039 402.882 103.933 424.916 97.2801 447C94.1929 457.248 89.5642 467.369 88 478L93 478C96.0731 463.151 101.872 448.384 106.667 434C112.755 415.734 118.249 397.27 124.333 379C127.319 370.034 130.036 360.978 132.999 352C134.393 347.776 136.928 342.402 136 338z"/>
<path style="fill:#e5ebfa; stroke:none;" d="M112 342C113.506 342.683 114.315 342.826 116 343C114.494 342.317 113.685 342.174 112 342z"/>
<path style="fill:#a4b7ed; stroke:none;" d="M75 479C78.3147 479 83.6364 479.977 86.49 477.972C89.0993 476.139 89.5944 471.834 90.4244 469C92.6895 461.267 95.6288 453.745 97.8588 446C107.822 411.397 119.858 377.243 131 343C126.945 343.963 119.763 345.481 116.843 348.588C114.854 350.705 114.226 354.323 113.333 357C111.12 363.638 109.212 370.362 107 377C99.1519 400.549 91.4396 424.234 84.2801 448C81.1929 458.248 76.5642 468.369 75 479z"/>
<path style="fill:#b9c7ef; stroke:none;" d="M188 344L147 472C149.663 471.998 153.244 472.526 155.581 470.972C157.825 469.48 158.521 466.392 159.333 464C161.356 458.037 163.028 451.976 165.001 446C172.784 422.418 180.557 398.776 187.72 375C189.44 369.289 191.46 363.662 193.333 358C194.109 355.656 195.59 352.631 194.647 350.144C193.651 347.514 189.979 345.93 188 344z"/>
<path style="fill:#dde5f7; stroke:none;" d="M269 344L269 347C269.696 345.446 269.696 345.554 269 344z"/>
<path style="fill:#bfcbf1; stroke:none;" d="M337 344C333.953 353.186 325.323 361.417 319.424 369C310.655 380.273 302.066 391.687 293.349 403C288.634 409.119 284.249 416.398 278 421C285.321 429.787 292.58 414.641 296.884 409C306.833 395.961 316.935 383.039 326.884 370C332.306 362.893 338.929 355.974 343 348L338 348C337.826 346.315 337.683 345.506 337 344z"/>
<path style="fill:#a3b5ed; stroke:none;" d="M112 346C110.079 359.006 104.162 372.515 100 385C92.4835 407.55 85.136 430.242 78.2801 453C75.5638 462.017 71.9127 470.758 70 480C75.4923 479.092 76.0161 474.808 77.4244 470C79.4944 462.933 82.1562 456.05 84.2801 449C90.6281 427.928 97.3968 406.886 104.333 386C108.391 373.781 114.119 360.736 116 348L112 346z"/>
<path style="fill:#c9d5f3; stroke:none;" d="M120.667 346.333C120.222 346.778 121.278 346.722 121.333 346.667C121.778 346.222 120.722 346.278 120.667 346.333z"/>
<path style="fill:#cdd5f3; stroke:none;" d="M430 346C425.302 355.431 417.265 363.637 410.884 372C397.114 390.048 383.047 407.878 369.374 426C364.823 432.032 360.222 438.042 355.576 444C352.507 447.935 349.92 451.607 345 453C356.52 457.834 362.481 445.64 368.424 438C384.941 416.767 401.469 395.508 417.627 374C423.041 366.792 436.949 355.352 430 346z"/>
<path style="fill:#d3dbf5; stroke:none;" d="M115.667 347.333C115.222 347.778 116.278 347.722 116.333 347.667C116.778 347.222 115.722 347.278 115.667 347.333z"/>
<path style="fill:#b1c1ef; stroke:none;" d="M160 347C158.196 359.218 152.684 371.228 149.025 383C139.556 413.471 127.191 443.918 120 475C126.102 474.3 126.897 470.307 128.667 465C130.881 458.362 132.809 451.641 135.001 445C141.587 425.045 147.689 404.933 154.333 385C158.388 372.836 164.129 359.671 166 347L160 347z"/>
<path style="fill:#b3c3ef; stroke:none;" d="M166 347C162.727 361.147 157.257 375.216 152.667 389C147.361 404.932 142.644 421.068 137.333 437C134.676 444.972 132.323 453.03 129.667 461C128.168 465.496 127.164 470.411 124 474C126.113 474.65 127.772 474.381 130.005 474.163C132.826 473.888 136.176 474.076 138.49 472.142C140.538 470.43 141.194 467.419 141.999 465C143.875 459.363 145.454 453.638 147.333 448C154.854 425.438 161.968 402.71 169.025 380C172.34 369.334 176.5 358.904 179 348C174.631 347.189 170.436 347 166 347z"/>
<path style="fill:#b1c1ef; stroke:none;" d="M228 378C231.23 381.48 234.464 384.458 239 386C247.542 373.074 260.089 361.874 267 348C262.665 348 256.168 346.799 252.289 349.028C248.967 350.937 246.627 355.014 244.374 358C239.35 364.659 234.474 372.73 228 378z"/>
<path style="fill:#b7c5ef; stroke:none;" d="M244 393C247.133 395.18 251.7 400.851 255.91 400.118C260.769 399.273 265.128 390.612 267.884 387C277.392 374.539 290.009 362.034 297 348C291.839 348 284.091 346.543 279.3 348.603C274.47 350.68 270.689 357.94 267.626 362C259.832 372.33 251.132 382.208 244 393z"/>
<path style="fill:#bdc9f1; stroke:none;" d="M264 409C266.091 411.731 270.633 417.481 274.7 415.825C280.451 413.482 285.693 402.797 289.424 398C297.439 387.698 305.382 377.339 313.349 367C318.042 360.909 323.566 354.893 327 348C322.909 348 316.957 346.92 313.289 349.028C308.4 351.838 304.969 358.638 301.576 363C293.561 373.302 285.618 383.661 277.651 394C273.631 399.218 269.989 405.965 264 409z"/>
<path style="fill:#c1cdf1; stroke:none;" d="M282 426C285.297 428.501 288.241 431.258 292 433C304.681 412.705 321.438 393.846 336.21 375C342.916 366.445 351.146 357.747 356 348C352.368 348 347.588 347.203 344.171 348.603C341.007 349.9 338.878 353.392 336.884 356C333.056 361.006 329.169 365.97 325.374 371C316.508 382.751 307.463 394.381 298.424 406C293.139 412.794 288.341 420.133 282 426z"/>
<path style="fill:#bdc9f1; stroke:none;" d="M195 351C191.32 366.908 184.872 382.404 180.025 398C172.359 422.671 165.299 447.893 156 472C159.363 471.375 162.578 471.028 166 471C167.653 459.806 172.461 448.72 175.999 438C182.232 419.117 188.639 400.108 194.141 381C196.661 372.249 207.333 355.243 195 351z"/>
<path style="fill:#cdd7f3; stroke:none;" d="M433 353C413.935 377.023 395.489 401.616 376.884 426C372.047 432.339 367.219 438.686 362.349 445C359.351 448.887 356.838 452.613 352 454C363.319 458.75 369.353 446.627 375.13 439C390.115 419.217 405.337 399.589 420.576 380C425.767 373.327 439.417 361.68 433 353z"/>
<path style="fill:#bfcbf1; stroke:none;" d="M202 356C193.551 381.967 185.078 407.924 176.975 434C173.262 445.947 167.094 458.474 166 471C168.491 470.535 172.231 470.564 174.298 468.976C179.058 465.318 180.19 453.487 182.001 448C189.026 426.714 195.834 405.352 202.656 384C204.251 379.006 205.66 373.969 207.343 369C208.07 366.854 209.318 364.345 208.593 362.04C207.656 359.062 204.494 357.448 202 356z"/>
<path style="fill:#cfd7f3; stroke:none;" d="M435 360C418.827 382.497 401.061 403.882 384.374 426C379.569 432.37 374.713 438.72 369.79 445C366.832 448.774 364.324 452.804 360 455C363.54 456.486 371.367 457.77 374.91 455.958C380.235 453.235 384.094 445.617 387.651 441C400.231 424.674 412.961 408.453 425.374 392C429.655 386.325 438.994 378.198 440.11 371C440.673 367.371 438.116 363.349 437 360L435 360z"/>
<path style="fill:#c1cdf1; stroke:none;" d="M209 363C201.53 385.957 194.139 408.947 186.975 432C183.051 444.624 177.981 457.115 175 470C177.267 469.57 180.422 469.468 182.298 467.987C186.707 464.505 187.706 454.127 189.344 449C195.737 428.992 202.026 408.923 208.667 389C211.349 380.952 219.641 367.184 209 363z"/>
<path style="fill:#c4cff1; stroke:none;" d="M215 368L195.656 429C191.423 442.247 186.136 455.446 183 469C186.818 468.968 194.114 469.465 196.914 466.397C201.536 461.335 203.265 449.515 205.141 443C209.497 427.872 214.864 412.996 219.656 398C221.438 392.421 225.853 383.843 225.356 378.004C224.942 373.132 218.953 369.762 215 368z"/>
<path style="fill:#d1d9f5; stroke:none;" d="M374 458C378.424 458.091 384.666 460.317 388.7 457.972C395.28 454.148 400.347 443.922 405 438C414.608 425.772 423.876 413.275 433.424 401C437.088 396.29 444.06 390.003 445.251 384C446.028 380.084 443.053 375.683 442 372C433.212 376.463 426.813 389.316 420.79 397C405.132 416.977 387.993 436.843 374 458z"/>
<path style="fill:#c5d1f1; stroke:none;" d="M226 377C218.641 399.616 211.14 422.228 204.28 445C201.964 452.689 198.811 460.172 197 468L204 467C206.477 450.229 214.495 433.154 219.656 417C223.344 405.456 225.648 391.356 232 381L226 377z"/>
<path style="fill:#c9d3f3; stroke:none;" d="M230 382C225.731 402.626 217.226 422.884 210.975 443C208.535 450.851 204.719 458.765 204 467C208.125 466.674 216.156 467.17 219.298 464.258C223.177 460.661 224.382 451.898 225.999 447C230.051 434.724 233.664 422.291 237.67 410C239.252 405.144 243.168 398.173 242.498 393C241.777 387.441 234.879 383.269 230 382z"/>
<path style="fill:#d3dbf5; stroke:none;" d="M446 384C432.271 399.865 420.156 417.378 407.349 434C401.252 441.912 392.168 450.449 389 460C394.805 460.12 403.365 463.044 408.711 459.972C413.293 457.339 416.495 451.096 419.651 447C427.098 437.335 434.461 427.594 442 418C445.368 413.714 452.155 407.503 453.083 402C453.909 397.094 448.891 387.824 446 384z"/>
<path style="fill:#cdd5f3; stroke:none;" d="M243 392C237.264 416.795 225.735 440.21 220 465C225.408 465 230.628 464.286 236 464.039C238.434 463.928 241.434 464.399 243.581 462.972C246.897 460.769 247.868 454.56 248.975 451C252.085 440.992 255.479 431.058 258.424 421C259.443 417.522 262.795 411.779 261.593 408.17C260.873 406.006 258.609 404.418 256.995 402.95C252.642 398.991 248.237 394.713 243 392z"/>
<path style="fill:#b7c7f1; stroke:none;" d="M55.3333 393.667C55.2778 393.722 55.2222 394.778 55.6667 394.333C55.7223 394.278 55.7778 393.222 55.3333 393.667M54.3333 396.667C54.2778 396.722 54.2222 397.778 54.6667 397.333C54.7223 397.278 54.7778 396.222 54.3333 396.667z"/>
<path style="fill:#d7ddf5; stroke:none;" d="M403 461C408.877 463.535 423.965 466.255 429.826 462.972C432.854 461.277 434.836 457.684 436.884 455C440.71 449.988 444.553 444.977 448.424 440C452.151 435.21 461.036 427.281 461.423 421C461.763 415.47 456.746 408.237 455 403C449.529 405.668 446.47 411.305 442.79 416C435 425.938 427.358 435.997 419.651 446C415.103 451.903 411.114 460.383 403 461z"/>
<path style="fill:#c9d5f3; stroke:none;" d="M51.3333 405.667C51.2778 405.722 51.2222 406.778 51.6667 406.333C51.7223 406.278 51.7778 405.222 51.3333 405.667z"/>
<path style="fill:#d1d9f5; stroke:none;" d="M262 409C256.215 426.78 249.213 444.787 245 463C248.959 462.997 255.005 463.698 258.298 461.012C260.723 459.034 261.392 454.823 262.333 452C264.88 444.362 267.121 436.638 269.667 429C270.727 425.818 273.079 421.433 272.212 418.015C271.111 413.675 265.752 410.672 262 409z"/>
<path style="fill:#b7c7f1; stroke:none;" d="M47.3333 418.667C47.2778 418.722 47.2222 419.778 47.6667 419.333C47.7222 419.278 47.7778 418.222 47.3333 418.667z"/>
<path style="fill:#d5ddf5; stroke:none;" d="M273 418L259 461C264.759 461 270.282 460.451 276 460C278.497 449.205 282.57 438.541 286 428C281.618 424.664 277.785 420.766 273 418z"/>
<path style="fill:#b7c7f1; stroke:none;" d="M46.3333 421.667C46.2778 421.722 46.2222 422.778 46.6667 422.333C46.7222 422.278 46.7778 421.222 46.3333 421.667z"/>
<path style="fill:#dbe1f7; stroke:none;" d="M462 422C453.44 431.322 446.195 442.011 438.424 452C434.575 456.948 431.623 462.97 425 464C431.534 466.819 439.975 466.387 447 467.173C459.024 468.518 470.889 471.044 483 472C480.37 462.366 475.648 453.202 471.81 444C468.795 436.77 466.374 428.51 462 422M285 429C282.59 439.417 277.56 449.439 276 460C282.175 459.996 287.902 458.519 294 458.09C301.442 457.565 309.851 458.113 317 456C315.417 454.026 311.628 451.434 312 449C302.358 443.429 295.126 433.513 285 429z"/>
<path style="fill:#c5d1f5; stroke:none;" d="M43.3333 430.667C43.2778 430.722 43.2222 431.778 43.6667 431.333C43.7222 431.278 43.7778 430.222 43.3333 430.667z"/>
<path style="fill:#b7c7f1; stroke:none;" d="M39.3333 443.667C39.2778 443.722 39.2222 444.778 39.6667 444.333C39.7222 444.278 39.7778 443.222 39.3333 443.667M38.3333 446.667C38.2778 446.722 38.2222 447.778 38.6667 447.333C38.7222 447.278 38.7778 446.222 38.3333 446.667z"/>
<path style="fill:#c5d1f5; stroke:none;" d="M35.3333 455.667C35.2778 455.722 35.2222 456.778 35.6667 456.333C35.7222 456.278 35.7778 455.222 35.3333 455.667z"/>
<path style="fill:#c9d5f3; stroke:none;" d="M34.3333 458.667C34.2778 458.722 34.2222 459.778 34.6667 459.333C34.7222 459.278 34.7778 458.222 34.3333 458.667z"/>
<path style="fill:#e8edfb; stroke:none;" d="M218 465C220.052 465.874 221.747 465.953 224 466C221.948 465.126 220.253 465.047 218 465z"/>
<path style="fill:#e1e7f9; stroke:none;" d="M208 466C209.769 466.779 211.036 466.912 213 467C211.231 466.221 209.964 466.088 208 466z"/>
<path style="fill:#dde3f7; stroke:none;" d="M177 469C178.769 469.779 180.036 469.912 182 470C180.231 469.221 178.964 469.088 177 469z"/>
<path style="fill:#dbe3f8; stroke:none;" d="M168 470C169.506 470.683 170.315 470.826 172 471C170.494 470.317 169.685 470.174 168 470z"/>
<path style="fill:#b7c7f1; stroke:none;" d="M30.3333 471.667C30.2778 471.722 30.2222 472.778 30.6667 472.333C30.7222 472.278 30.7778 471.222 30.3333 471.667z"/>
<path style="fill:#e5ebfa; stroke:none;" d="M158 471C159.506 471.683 160.315 471.826 162 472C160.494 471.317 159.685 471.174 158 471z"/>
<path style="fill:#d9dff7; stroke:none;" d="M146 472C148.052 472.874 149.747 472.953 152 473C149.948 472.126 148.253 472.047 146 472z"/>
<path style="fill:#dfe5f9; stroke:none;" d="M136 473C137.769 473.779 139.036 473.912 141 474C139.231 473.221 137.964 473.088 136 473z"/>
<path style="fill:#d5ddf5; stroke:none;" d="M127 474C128.506 474.683 129.315 474.826 131 475C129.494 474.317 128.685 474.174 127 474z"/>
<path style="fill:#d1dbf6; stroke:none;" d="M105 476C106.769 476.779 108.036 476.912 110 477C108.231 476.221 106.964 476.088 105 476z"/>
<path style="fill:#cbd5f3; stroke:none;" d="M96 477C97.5061 477.683 98.3148 477.826 100 478C98.494 477.317 97.6852 477.174 96 477z"/>
<path style="fill:#d7dff5; stroke:none;" d="M74 479C76.0521 479.874 77.7472 479.953 80 480C77.9479 479.126 76.2528 479.047 74 479z"/>
<path style="fill:#cbd5f3; stroke:none;" d="M64 480C65.769 480.779 67.0359 480.912 69 481C67.231 480.221 65.9641 480.088 64 480z"/>
<path style="fill:#dbe1f7; stroke:none;" d="M45 482C47.0521 482.874 48.7472 482.953 51 483C48.9479 482.126 47.2528 482.047 45 482z"/>
<path style="fill:#e5ebfa; stroke:none;" d="M26 483C26.9802 484.783 26.9076 484.594 29 485C27.8606 483.985 27.3884 483.691 26 483z"/>
<path style="fill:#c5d1f5; stroke:none;" d="M33 483C35.0521 483.874 36.7472 483.953 39 484C36.9479 483.126 35.2528 483.047 33 483z"/>
</svg>
